<svg width="265" height="245" viewBox="0 0 265 245" fill="none" xmlns="http://www.w3.org/2000/svg">
<g clip-path="url(#clip0_2_10)">
<path fill-rule="evenodd" clip-rule="evenodd" d="M167.743 162.366C167.227 170.676 156.913 174.973 150.66 176.768C151.917 168.634 153.528 160.183 152.529 151.908C152.207 149.196 151.755 146.485 151.304 143.773C151.143 142.787 150.95 141.766 150.756 140.78C150.724 140.533 150.337 139.477 150.466 139.231C150.66 138.808 152.432 138.878 152.884 138.878C154.034 138.92 155.164 139.22 156.204 139.759C158.428 140.815 160.265 142.611 161.812 144.618C165.39 149.372 168.13 156.098 167.743 162.366ZM155.785 105.954C149.789 109.827 142.601 111.905 135.768 112.926C125.356 114.475 114.752 112.679 104.566 110.214C102.084 109.616 99.5699 108.947 97.1202 108.207C96.9991 116 99.0447 123.649 102.987 130.145C106.274 135.568 110.529 140.111 114.268 145.146C117.749 149.83 120.554 155.112 120.683 161.274C120.747 163.845 120.554 166.204 118.555 167.895C116.557 169.585 113.881 170.183 111.464 170.571C105.372 171.522 99.022 171.029 92.9621 169.972C91.8017 169.761 90.6091 169.55 89.4487 169.233C88.1272 168.916 87.6759 168.528 86.58 169.585C84.1947 171.909 83.131 175.395 82.583 178.74C81.6136 185.303 81.8768 192.012 83.3567 198.46C84.7427 204.411 91.3505 207.686 96.2499 209.13C110.98 213.461 127.258 207.475 138.572 196.84C138.83 196.594 139.056 196.382 139.313 196.136C140.111 197.968 140.993 199.754 141.957 201.488C142.601 202.721 143.345 203.887 144.181 204.975C144.468 205.429 144.828 205.823 145.244 206.137C146.018 206.594 146.792 206.278 147.694 206.101C154.141 204.869 160.587 203.284 166.712 200.714C176.027 196.875 184.408 190.502 188.824 180.466C191.048 175.395 192.208 169.831 192.788 164.268C193.433 157.859 193.562 151.344 191.918 145.111C188.888 133.702 181.217 124.441 172.772 117.292C167.582 112.891 161.844 108.876 155.785 105.954Z" fill="#FCE96D"/>
<path fill-rule="evenodd" clip-rule="evenodd" d="M261.252 30.3145C259.898 30.9131 258.415 31.0539 256.965 31.1948C255.836 31.3004 254.934 31.7934 253.87 31.8287C250.872 31.8517 247.879 32.087 244.909 32.5329C241.912 33.0259 239.172 32.3921 236.819 34.8218C235.981 35.7022 234.917 36.6881 235.433 38.0967C235.658 38.7305 235.981 39.1883 236.174 39.8926C236.395 40.6632 236.664 41.4162 236.98 42.1463C237.592 43.59 240.59 48.9073 238.14 49.5412C235.497 50.2454 231.887 49.4355 229.341 48.6256C227.858 48.1678 226.375 47.6044 224.925 47.0762C223.764 46.6536 222.217 46.4071 221.154 45.7381C220.444 45.2803 220.283 44.5408 219.832 43.8013C219.025 42.5126 218.096 41.3204 217.06 40.2447C214.771 37.9558 211.903 36.4064 209.066 35.0683C208.842 34.9328 208.604 34.8265 208.357 34.7514C208.131 34.7162 207.906 34.9627 207.777 34.9275C207.39 34.857 207.261 34.5753 206.842 34.3288C206.294 33.9767 204.038 32.8499 203.619 33.7302C203.973 32.5329 204.263 32.8851 205.263 33.0611C205.714 33.1316 206.004 32.9203 206.391 32.9555C206.745 32.9907 206.906 33.202 207.197 33.2724C207.753 33.3376 208.314 33.3494 208.873 33.3076C209.034 32.9203 209.259 32.9203 209.55 33.3076C209.711 33.3781 209.872 33.4133 210.033 33.4837C210.627 33.6136 211.232 33.6727 211.838 33.6598C212.741 33.7302 215.061 34.9275 215.513 33.7302C215.996 32.4273 214.546 32.1104 214.288 31.23C214.062 30.3497 215.158 29.8215 215.609 29.2933C216.125 28.6946 216.415 28.1664 217.028 27.6382C217.425 27.3556 217.784 27.0116 218.091 26.617C218.317 26.2297 218.317 25.631 218.639 25.2789C218.994 24.8915 219.058 25.1733 219.381 24.962C220.025 24.6098 219.735 24.6098 220.122 24.1168C220.444 23.6943 220.702 23.6943 221.121 23.3774C221.766 22.9196 221.992 21.9688 222.604 21.4758C223.055 21.0885 223.764 21.0885 224.151 20.7011C224.377 20.4898 224.312 20.1025 224.506 19.8912C224.893 19.4686 225.15 19.6447 225.634 19.5038C226.44 19.2573 226.698 18.7996 227.31 18.2009C227.858 17.6727 228.213 17.6727 228.889 17.4614C229.824 17.1797 230.437 16.405 231.275 15.9472C232.081 15.5247 232.886 15.2078 233.692 14.7852C234.272 14.4683 234.82 14.257 235.368 13.9049C235.562 13.7992 235.562 13.3766 235.787 13.3062C236.045 13.2358 236.271 13.7288 236.561 13.764C237.141 13.8344 237.818 13.0949 238.205 12.6724C238.366 12.4963 238.592 12.0033 238.817 11.8977C239.269 11.6864 239.526 12.109 239.945 11.9329C240.526 11.6864 240.3 11.0173 240.622 10.6652C240.912 10.3483 241.557 10.3483 242.105 10.4539C244.297 10.8765 240.88 12.5315 240.268 12.8837C239.204 13.4471 231.404 17.6023 233.241 19.6799C234.208 20.7715 236.561 19.9616 237.625 19.6799C239.462 19.1869 241.364 18.2009 243.265 17.9544C243.491 17.9192 244.2 18.0953 244.394 18.0249C244.813 17.8488 244.716 17.4967 245.071 17.2854C245.586 17.0037 246.65 17.0037 247.198 17.0741C247.617 17.1093 248.068 17.391 248.487 17.3558C248.939 17.3206 249.39 17.0037 249.873 16.9332C250.679 16.7572 251.485 16.8628 252.291 16.8628C253.451 16.898 255.74 17.0741 254.064 18.7644C252.71 20.1025 250.389 20.7011 248.681 21.2997C246.166 22.1801 243.685 22.9548 241.203 23.9408C239.494 24.6098 235.884 25.8071 237.915 28.3425C238.108 28.1312 238.302 27.9199 238.527 27.7086C238.753 27.9551 239.011 28.4833 239.398 28.4833C239.72 28.4833 239.591 28.1312 239.881 28.0256C240.816 27.6734 242.105 27.7086 243.072 27.6382C245.522 27.4621 248.004 27.11 250.453 27.0044C252.787 26.875 255.126 27.0642 257.416 27.5678C257.899 27.8495 263.379 29.3989 261.252 30.3145V30.3145ZM241.106 56.3726C241.235 57.4995 240.784 58.415 240.655 59.5067C240.493 60.8096 240.622 62.0068 240.268 63.3097C239.591 65.8451 239.14 68.4862 238.398 71.0216C237.141 75.4937 235.111 79.4376 233.015 83.5224C231.952 85.6001 230.34 87.2903 228.857 89.051C227.342 90.8117 226.15 92.5724 224.345 94.0161C220.734 96.9389 216.867 99.5095 212.612 101.094C208.164 102.749 203.458 103.242 198.784 103.031C196.689 102.925 194.497 103.172 192.466 102.784C190.274 102.397 187.921 101.904 185.794 101.341C181.861 100.284 178.09 98.4883 174.254 96.8685C169.967 95.0726 166.131 92.7837 162.199 90.2131C161.168 89.544 160.072 89.1919 159.105 88.3819C158.299 87.6777 157.493 87.0086 156.623 86.3748C155.623 85.6353 154.689 84.8606 153.689 84.1563C153.077 83.7337 152.239 83.3464 151.917 82.5717C151.498 81.5505 152.013 80.2476 152.271 79.2264C152.626 77.9235 153.013 76.6205 153.432 75.3528C154.141 73.1696 155.978 69.8595 154.979 67.5354C152.851 68.9792 151.917 71.7963 151.014 74.1908C149.883 76.9876 149.206 79.9787 149.016 83.0294C148.715 89.3774 149.637 95.7236 151.723 101.658C152.046 102.538 152.561 103.453 152.175 104.369C151.755 105.355 150.627 106.165 149.757 106.587C147.017 107.926 144.245 108.313 141.376 109.052C140.603 109.264 139.732 109.862 138.991 109.933C138.508 109.968 138.089 109.792 137.508 109.827C136.928 109.827 136.477 110.179 135.993 110.214C135.542 110.25 135.155 109.968 134.736 110.003C133.769 110.074 133.608 111.834 133.125 110.285C133.028 110.355 132.577 110.919 132.512 110.919C132.383 110.919 132.125 110.496 131.997 110.391C131.72 110.267 131.425 110.195 131.126 110.179C130.493 110.079 129.85 110.103 129.224 110.25C128.096 110.531 126.968 110.426 126.001 110.391C125.776 110.391 125.614 110.567 125.356 110.567C125.228 110.567 125.066 110.32 124.937 110.285C124.164 110.074 123.39 110.214 122.617 110.179C120.779 110.074 119.039 110.003 117.266 109.581C113.624 108.665 109.917 108.489 106.242 107.679C104.373 107.257 102.568 107.045 100.73 106.482C100.086 106.271 99.4088 106.2 98.8608 105.918C98.3128 105.672 98.5385 105.32 97.6682 105.989C97.2814 104.968 97.2492 105.073 96.3144 104.721C95.8091 104.544 95.3228 104.308 94.8639 104.017C94.8317 103.982 94.2837 102.432 94.2192 102.256C93.9936 101.341 94.187 100.284 94.2837 99.3334C94.5093 97.2206 94.8317 95.143 94.8317 93.0302C94.8317 92.0794 94.9928 92.0794 95.2507 91.3751C95.3474 91.1638 95.573 91.1638 95.6053 90.8469C95.6375 90.3891 95.2185 90.1074 95.2507 89.5792C95.3152 88.8749 95.9598 88.1707 96.1855 87.5368C96.4433 86.7621 96.4433 85.917 96.6045 85.1071C96.8301 84.0154 97.2492 83.0294 97.4425 81.9378C97.6359 81.0223 97.6359 80.2828 98.0872 79.5081C98.5385 78.7334 98.4095 78.0995 98.7641 77.2896C99.0864 76.5853 99.5055 76.3036 99.7311 75.4585C100.262 73.3364 101.112 71.3254 102.245 69.5074C103.277 73.9443 104.373 78.5573 107.209 82.0435C108.37 83.4872 109.885 84.9662 111.657 85.3888C113.656 85.8818 115.268 84.6141 116.557 83.0647C119.651 79.4376 120.941 75.3528 121.134 70.4229C121.166 69.1904 121.166 67.958 121.166 66.7255C121.166 66.1621 120.908 64.7887 121.231 64.3309C121.617 63.838 122.681 64.1549 123.229 63.8027C123.906 63.3802 124.68 62.2885 124.357 61.4082C126.195 62.3238 127.935 63.521 129.966 63.7675C130.762 63.8225 131.561 63.7871 132.351 63.6619C132.319 63.6619 132.899 63.8027 132.931 63.8027C132.98 63.7253 133.051 63.6688 133.134 63.643C133.216 63.6173 133.304 63.624 133.383 63.6619C133.453 63.663 133.521 63.6871 133.578 63.731C133.636 63.775 133.68 63.8368 133.705 63.9084C136.606 64.2253 139.539 62.6759 142.021 60.9856C143.472 59.9997 145.051 58.5911 145.47 56.6896C145.631 56.0205 145.502 55.3867 146.115 55.0345C146.63 54.7528 147.63 55.1754 148.178 55.2106C150.112 55.3514 151.981 55.1754 153.851 55.774C155.011 56.1614 156.977 58.8376 157.783 56.9361C158.138 57.2882 157.944 57.922 158.299 58.2742C158.621 58.5911 159.685 58.8024 160.136 59.0489C160.813 59.4362 161.232 59.9644 161.844 60.4574C162.586 61.0561 163.359 61.0913 164.069 61.7956C166.551 64.1901 169.451 65.9156 172.224 67.9227C175.511 70.2821 178.412 73.064 181.958 74.9655C185.568 76.9375 189.049 78.5573 193.014 79.5785C194.803 80.0665 196.624 80.3963 198.461 80.5645C199.332 80.6349 200.137 80.5997 200.976 80.8814C201.347 81.0383 201.738 81.1332 202.136 81.1631C202.426 81.1631 202.845 80.9871 203.2 80.9871C203.941 80.9871 204.296 80.9518 204.972 81.2335C205.676 81.5587 206.432 81.7264 207.197 81.7265C208.164 81.7618 208.744 81.3392 209.646 81.0927C210.355 80.8814 211 80.9871 211.645 80.5645C214.511 78.6052 216.821 75.813 218.317 72.5005C220.025 68.7327 221.379 64.1549 221.637 59.9292C221.756 57.5379 221.359 55.1494 220.477 52.9569C220.251 52.3231 218.801 49.682 219.252 49.189C219.735 48.6256 221.379 49.8933 221.83 50.175C223.281 51.0554 225.924 51.3371 226.955 52.7808C227.213 52.2174 228.664 53.0273 229.147 53.2738C229.534 53.4499 229.631 53.802 230.114 53.8372C230.566 53.8725 231.049 53.4851 231.468 53.3443C231.146 54.295 232.177 54.3302 232.886 54.3655C233.392 54.3787 233.898 54.3552 234.401 54.295C235.272 54.2246 235.272 54.0133 236.078 53.5203C236.046 53.876 236.078 54.235 236.174 54.5767C236.69 53.7668 237.657 54.3302 238.334 53.9781C237.85 53.1682 239.945 52.9217 240.461 53.0978C241.847 53.626 241.009 55.3514 241.106 56.3726V56.3726ZM143.729 112.961C144.535 112.679 145.373 112.433 146.211 112.186C145.599 112.82 144.954 113.947 144.052 114.123C142.988 114.334 142.537 113.348 143.729 112.961ZM103.212 113.419C104.598 113.595 106.113 113.454 107.306 114.37C106.726 115.109 106.339 115.884 105.34 115.461C104.534 115.074 103.857 114.088 103.212 113.419V113.419ZM149.37 154.02C148.468 153.14 148.597 152.717 149.016 151.591C149.209 151.098 149.499 149.548 150.176 150.006C150.434 150.182 150.724 151.837 150.756 152.189C150.853 152.964 150.434 155.077 149.37 154.02ZM154.495 148.879C154.173 147.576 154.173 146.203 153.883 144.865C153.561 143.456 153.141 142.083 153.013 140.639C157.815 141.555 160.523 146.766 162.618 151.098C163.714 153.387 164.81 155.957 165.229 158.528C165.648 161.028 164.939 162.929 164.101 165.183C163.682 166.31 163.005 166.733 162.199 167.472C161.49 168.141 161.232 169.268 160.491 169.867C159.943 170.324 159.234 170.536 158.653 170.993C158.073 171.451 157.525 171.874 156.945 172.296C156.268 172.754 154.27 174.48 153.367 174.127C152.69 173.846 152.98 172.965 153.174 172.367C153.517 171.188 153.797 169.989 154.012 168.775C154.576 165.472 154.932 162.131 155.075 158.774C155.172 155.464 155.301 152.084 154.495 148.879V148.879ZM150.498 163.88C150.563 164.056 150.885 165.43 150.208 165.148C149.725 164.937 150.434 164.127 150.498 163.88ZM153.303 108.454C153.883 108.207 154.108 108.947 154.592 108.982C155.237 109.017 155.398 108.207 156.075 108.172C157.783 108.102 160.233 109.898 161.587 110.848C160.91 111.764 160.62 112.75 160.974 113.877C161.264 114.898 162.392 116.025 162.36 117.081C162.328 118.138 161.103 118.842 160.716 119.793C160.362 120.673 160.233 122.434 161.329 122.821C163.198 123.49 163.617 119.687 165.036 119.652C165.648 119.652 166.422 120.884 166.841 121.272C167.83 122.092 168.901 122.788 170.032 123.349C170.805 123.737 171.869 124.511 172.417 123.455C172.868 122.61 172.514 121.307 172.062 120.603C171.547 119.793 167.034 116.025 167.324 115.708C167.485 115.532 168.613 116.025 168.775 116.166C169.129 116.483 169.258 117.046 169.613 117.398C170.161 117.926 170.87 118.138 171.547 118.419C172.965 118.947 173.867 120.779 175.253 121.624C176.059 122.117 176.543 123.067 177.22 123.807C178.09 124.758 178.993 125.779 178.864 127.187C178.767 128.173 178.638 130.462 178.122 131.272C177.574 132.153 176.639 131.836 175.834 132.047C174.899 132.293 174.125 133.103 174.319 134.23C174.512 135.428 175.382 135.498 176.285 135.533C178.864 135.604 177.897 137.399 178.799 139.371C179.283 140.428 180.088 140.85 180.669 139.618C181.12 138.632 180.314 137.047 180.798 136.167C181.378 135.111 184.569 135.392 185.246 136.202C185.761 136.801 186.019 137.646 186.503 138.315C187.276 139.301 187.567 140.674 188.05 141.836C188.534 143.104 188.953 144.407 189.339 145.71C189.597 146.625 190.177 148.104 188.824 147.295C187.889 146.731 187.18 145.499 185.987 145.463C184.794 145.428 184.118 146.766 184.472 147.928C184.794 149.055 186.342 149.548 186.503 150.71C186.696 151.978 184.73 153.246 184.15 154.161C182.764 156.274 183.924 158.669 186.181 156.873C186.986 156.239 187.824 154.936 188.727 154.549C190.145 153.915 190.145 156.274 190.822 157.154C191.177 157.612 191.338 157.154 191.112 157.859C191.048 158.105 190.629 158.211 190.564 158.528C190.532 158.774 190.725 158.88 190.725 159.056C190.771 159.516 190.739 159.982 190.629 160.429C190.537 161.235 190.494 162.047 190.5 162.859C190.403 164.585 190.371 166.24 190.21 167.965C190.113 168.916 189.92 170.888 190.951 171.346C190.596 171.979 190.081 173.74 189.372 173.599C189.436 174.022 189.404 174.55 189.758 174.832C189.855 174.585 189.92 174.339 190.016 174.057C190.21 174.62 190.049 174.691 190.016 175.113C190.016 174.62 189.597 175.782 189.823 175.642C189.629 175.818 189.372 175.923 189.081 176.135C188.662 176.452 188.469 176.909 188.147 177.332C187.567 178.107 187.599 178.916 187.115 179.726C186.406 180.888 185.471 182.051 184.73 183.213C184.118 184.163 182.957 184.692 182.474 185.713C182.151 186.347 182.022 187.121 181.507 187.579C180.733 188.213 179.734 188.847 178.896 189.516C178.38 189.938 177.993 190.537 177.445 190.924C177.187 191.136 176.382 191.347 176.382 191.77C175.382 191.453 174.673 190.361 173.9 189.692C173.384 189.234 172.127 188.636 172.191 187.755C172.256 187.016 173.223 186.1 173.448 185.325C173.642 184.656 173.9 183.424 173.384 182.86C172.288 181.663 171.063 184.199 170.451 184.903C169.226 186.276 168.71 184.903 167.743 183.882C166.164 182.262 165.164 183.952 165.712 185.959C166.003 186.98 167.066 187.896 167.131 188.917C167.195 190.044 166.067 190.643 165.616 191.558C165.197 192.403 165.003 193.918 165.777 194.622C166.647 195.397 167.421 194.481 168.001 193.742C168.452 193.178 168.936 191.946 169.677 191.875C170.58 191.805 172.062 193.601 172.772 194.129C171.74 194.446 171.095 195.432 170.225 196.03C169.097 196.805 167.485 197.016 166.196 197.545C165.003 198.073 163.907 198.46 162.747 199.094C161.393 199.833 159.717 200.045 158.267 200.573C156.977 201.066 155.752 201.735 154.431 202.158C152.948 202.615 151.401 202.897 149.918 203.284C148.583 203.693 147.21 203.929 145.825 203.989C144.503 203.989 144.535 203.108 144.084 201.876C143.568 200.467 142.73 199.2 142.214 197.826C141.699 196.488 142.472 195.995 143.214 194.974C143.923 194.023 143.729 193.882 144.632 194.551C145.825 195.432 146.598 194.833 147.501 193.812C148.307 192.896 148.629 192.157 149.789 192.791C150.95 193.425 152.078 194.446 153.335 194.833C154.334 195.15 155.075 194.939 155.237 193.742C155.43 192.474 154.753 191.558 153.915 190.784C153.27 190.22 151.884 189.516 151.627 188.565C151.369 187.579 152.69 186.135 152.819 185.008C152.98 183.6 152.432 182.579 151.24 183.565C150.369 184.269 149.757 185.783 148.564 185.889C148.919 184.339 149.628 182.966 150.273 181.522C150.788 180.325 151.272 178.987 152.69 178.846C153.141 178.811 153.464 178.846 153.883 178.776C154.463 178.67 155.237 178.564 155.881 178.388C157.332 178.001 158.621 176.768 159.975 176.064C160.297 176.98 160.813 179.55 162.07 178.036C163.005 176.909 161.973 175.008 162.811 173.775C164.584 171.205 168.42 173.106 170.741 171.768C171.74 171.205 172.578 169.374 171.16 168.81C170.322 168.493 167.937 169.69 167.421 168.81C167.066 168.176 168.549 165.747 168.742 165.077C169.29 163 169.226 160.817 169.226 158.669C170.354 159.162 171.772 160.359 172.997 160.5C174.254 160.676 174.48 159.056 174.125 158C173.674 156.556 172.159 155.358 171.128 154.408C170.676 153.985 169.484 153.316 169.226 152.717C168.968 152.084 169.323 151.767 169.613 151.203C170.064 150.323 171.16 148.069 169.967 147.224C168.871 146.449 168.259 148.597 167.55 149.055C166.357 149.83 165.97 148.069 165.487 147.154C164.649 145.534 163.456 144.055 162.392 142.611C161.425 141.273 160.845 140.357 160.684 138.667C160.587 137.364 160.329 136.378 161.716 136.097C164.197 135.568 167.808 136.871 169.806 134.653C170.87 133.491 170.096 132.329 168.775 132.364C167.057 132.487 165.335 132.487 163.617 132.364C162.683 132.293 160.749 132.54 160.265 131.484C159.653 130.145 160.684 127.962 159.556 126.765C158.138 125.251 157.783 128.666 157.751 129.617C157.719 130.322 157.88 131.343 157.493 131.941C157.138 132.505 156.462 132.505 155.914 132.681C154.56 133.174 153.851 135.005 155.656 135.392C156.268 135.533 157.106 135.322 157.622 135.815C158.138 136.343 157.944 137.259 158.009 137.928C156.752 136.308 154.108 137.047 152.4 136.449C151.498 136.132 151.336 135.709 150.95 134.758C150.498 133.596 149.435 132.153 149.402 130.85C149.37 129.758 150.208 128.948 150.595 127.997C150.978 127.055 151.176 126.035 151.175 125.004C151.046 122.821 147.468 125.039 146.727 125.885C145.373 127.399 143.729 129.336 144.471 131.484C145.115 133.385 145.47 134.477 143.214 134.336C142.376 134.265 140.667 134.442 140.023 134.089C139.539 133.808 139.732 133.315 139.7 132.575C139.7 131.941 139.732 130.991 139.346 130.427C138.024 128.49 137.734 133.315 136.993 133.843C135.832 134.653 133.415 133.808 133.608 136.237C133.769 138.385 136.412 137.505 137.154 139.336C137.508 140.217 137.444 141.238 137.863 142.118C138.508 143.351 139.281 143.28 139.7 142.012C139.99 141.132 139.604 140.217 139.829 139.371C140.152 138.139 141.699 138.28 142.666 138.139C143.784 137.954 144.884 137.659 145.953 137.259C147.307 136.766 147.243 137.576 147.468 138.702C147.726 140.041 148.113 141.308 148.371 142.682C148.597 143.949 149.209 145.287 149.306 146.555C149.37 147.506 149.08 147.435 148.339 147.999C147.533 148.597 146.663 150.182 145.728 150.429C144.342 150.816 142.924 147.33 141.666 149.126C141.119 149.9 141.344 151.52 141.731 152.295C142.247 153.351 143.181 153.598 142.408 154.795C141.828 155.675 141.086 156.38 141.022 157.612C140.957 158.739 141.666 159.795 142.762 159.479C143.633 159.197 144.148 158.211 144.825 157.612C145.986 156.591 146.92 157.542 148.113 158.105C149.048 158.563 150.756 158.88 151.208 159.936C151.788 161.31 151.046 161.838 149.95 161.45C150.369 163 149.821 163.88 149.66 165.465C149.531 166.768 149.274 167.93 149.08 169.162C148.854 170.817 148.822 170.641 147.275 170.712C145.953 170.747 144.664 170.712 143.343 170.641C142.182 170.571 141.376 170.712 141.312 169.162C141.28 168.493 141.666 166.169 140.442 166.451C139.346 166.697 139.668 168.81 139.313 169.585C138.798 170.747 137.895 170.395 136.928 170.676C135.929 170.958 135.123 171.768 135.381 173.036C135.671 174.374 136.767 174.268 137.734 174.585C139.217 175.043 138.894 177.473 139.765 178.776C140.119 179.304 140.506 179.832 141.086 179.409C142.182 178.6 141.151 176.663 141.441 175.677C141.731 174.656 142.762 174.867 143.729 174.726C145.148 174.515 146.663 173.775 148.081 173.775C147.823 174.691 147.049 175.184 146.759 176.135C146.598 176.628 146.759 177.578 146.534 178.001C146.308 178.459 145.631 178.6 145.341 179.198C144.954 180.008 144.858 180.888 144.406 181.698C143.375 183.6 142.472 185.537 141.344 187.438C140.215 189.379 138.943 191.216 137.541 192.932C136.155 194.587 135.736 193.777 134.511 192.439C134.027 191.91 132.996 191.277 132.835 190.467C132.706 189.657 133.318 189.023 133.64 188.354C134.092 187.473 134.865 185.994 134.672 184.973C134.317 183.037 132.706 184.832 132.093 185.537C131.03 186.804 130.449 188.143 128.838 187.157C127.806 186.523 126.517 184.762 125.195 185.396C123.97 185.994 124.325 187.72 125.066 188.565C125.485 189.058 126.098 189.34 126.549 189.798C127.516 190.784 126.968 191.065 126.517 192.157C126.162 193.072 126.098 194.833 126.775 195.573C128.064 197.052 129.096 194.058 130.288 194.023C130.868 193.988 133.254 195.713 133.415 196.312C133.705 197.404 131.158 198.671 130.449 199.2C128.87 200.362 127.129 201.594 125.356 202.369C123.261 203.284 124.809 200.397 123.68 199.411C122.165 198.143 122.069 201.594 121.908 202.439C121.489 204.728 119.297 204.763 117.524 205.327C116.396 205.679 115.268 206.066 114.139 206.383C113.172 206.665 112.076 206.63 111.142 206.982C110.304 207.264 109.756 207.862 108.821 207.862C108.531 207.862 108.273 207.757 107.983 207.757C107.403 207.757 106.855 208.109 106.307 208.074C105.372 208.003 105.791 207.686 105.469 206.982C105.179 206.313 104.405 206.066 103.792 205.855C102.084 205.256 100.666 205.785 100.408 203.39C100.344 202.651 100.44 199.657 99.1509 200.01C97.6682 200.432 98.9575 203.989 98.055 204.869C97.6037 205.292 96.9268 205.08 96.3789 205.221C95.4763 205.432 95.0895 206.172 94.1225 206.102C93.3108 206.013 92.5282 205.724 91.834 205.256C90.7703 204.658 89.481 204.27 88.6107 203.39C87.3858 202.158 86.8701 200.221 86.3221 198.566C85.5951 196.152 85.1828 193.639 85.0972 191.1C85.065 190.22 84.7104 189.586 84.5493 188.741C84.3881 187.861 84.8394 187.685 84.9683 186.875C85.065 186.065 85.0328 185.22 85.1617 184.339C85.3873 183.107 85.4518 181.839 85.6774 180.572C86.032 178.494 86.58 176.452 87.0312 174.409C87.1602 173.775 87.418 171.733 88.1272 171.557C88.6429 171.416 89.8678 172.261 90.3835 172.543C91.3505 173.036 92.1885 173.74 93.22 174.092C93.768 174.268 94.4449 174.268 94.7672 174.796C95.3152 175.642 94.8639 177.332 95.0895 178.353C95.3796 179.586 96.3144 180.114 97.0558 178.881C97.4426 178.212 97.3458 177.438 97.4103 176.698C97.4748 175.642 97.507 175.395 98.5707 175.466C99.6344 175.536 100.666 175.994 101.762 176.029C102.761 176.064 103.728 176.064 104.727 175.994C107.051 175.893 109.346 175.394 111.528 174.515C113.043 173.881 114.816 172.508 116.492 172.543C118.845 172.613 118.201 175.008 118.523 176.768C118.716 177.86 120.393 181.205 121.037 178.494C121.36 177.156 120.296 175.219 120.908 173.987C121.65 172.543 124.357 173.74 125.582 173.423C126.581 173.141 128.257 171.627 127.548 170.289C127.226 169.655 126.581 169.761 126.001 169.726C124.905 169.62 123.809 169.479 122.746 169.303C122.133 169.197 121.198 169.162 120.941 168.388C120.715 167.719 121.714 166.028 121.94 165.394C122.62 163.463 122.948 161.406 122.907 159.338C122.955 158.292 122.923 157.243 122.81 156.204C122.746 155.816 122.23 154.619 122.488 154.267C122.81 153.774 123.455 154.408 123.745 154.76C124.261 155.464 124.099 155.429 123.777 156.168C123.326 157.26 122.488 159.514 123.938 160.359C125.453 161.239 126.001 158.281 127.419 158.598C128.096 158.739 128.741 159.725 129.289 160.148C129.917 160.715 130.61 161.188 131.352 161.556C132.577 162.084 133.931 161.697 133.447 160.007C133.06 158.704 131.835 157.577 130.965 156.661C129.579 155.182 129.644 154.549 130.61 152.788C131.03 152.048 132.577 148.95 130.772 148.703C129.837 148.562 128.805 150.253 128.29 150.886C127.419 151.978 126.936 152.471 125.647 151.591C124.389 150.71 123.809 150.006 122.294 149.936C120.554 149.83 119.78 146.978 118.845 145.499C116.331 141.519 112.495 139.548 109.24 136.484C107.66 135.005 106.597 133.033 105.404 131.202C104.824 130.322 104.083 129.617 103.631 128.666C103.341 128.068 102.535 126.624 102.761 125.92C103.019 125.039 104.405 124.511 104.985 123.877C105.469 123.349 105.726 122.715 106.5 122.891C107.177 123.067 107.789 124.089 108.337 124.511C108.897 124.952 109.49 125.341 110.11 125.673C111.206 126.272 112.528 126.589 112.592 124.793C112.657 123.244 111.367 121.589 110.433 120.567C109.756 119.828 108.724 119.159 108.853 117.961C109.006 117.2 109.279 116.473 109.659 115.813C110.594 114.088 113.43 115.144 114.977 115.25C116.847 115.391 118.878 115.039 120.36 116.483C120.844 116.94 121.972 117.891 122.198 118.525C122.488 119.3 122.036 119.617 121.779 120.356C121.456 121.307 121.231 123.173 122.165 123.842C123.713 124.934 124.518 121.694 126.13 122.398C127.677 123.067 128.741 125.004 130.482 125.321C132.77 125.709 131.481 122.61 130.675 121.694C129.644 120.497 127.645 119.3 128.322 117.539C128.515 117.046 128.934 115.99 129.321 115.673C130.063 115.074 131.287 115.391 132.125 115.426C134.255 115.456 136.382 115.255 138.475 114.827C139.12 114.687 139.249 114.616 139.7 115.109C140.313 115.813 140.667 116.764 141.376 117.469C140.313 118.701 138.765 120.18 139.507 122.082C140.119 123.701 141.505 122.927 142.44 122.046C142.891 121.624 143.343 120.779 143.923 120.603C144.664 120.391 145.534 121.131 146.147 121.518C147.082 122.082 149.048 123.772 150.112 122.786C151.498 121.483 149.854 119.476 148.887 118.666C148.307 118.173 147.533 117.821 147.049 117.222C146.405 116.412 146.792 116.306 147.178 115.567C147.887 114.229 147.63 112.503 148.79 111.482C149.435 110.919 150.337 110.531 151.079 110.109C151.852 109.616 152.626 108.771 153.303 108.454V108.454ZM165.036 113.63C164.745 113.454 164.488 113.243 164.197 113.067C164.81 112.75 165.261 112.785 165.036 113.63ZM180.443 129.829C180.54 129.195 180.991 128.103 181.603 128.666C181.99 129.054 181.571 130.462 182.506 130.04C182.538 130.92 181.958 130.85 182.828 131.66C181.7 131.554 180.121 131.589 180.443 129.829ZM136.38 205.256C136.67 204.411 136.67 203.108 137.541 203.883C137.573 202.862 137.379 199.657 139.056 199.798C139.732 199.869 139.732 200.503 139.926 201.101C140.297 202.082 140.728 203.035 141.215 203.953C139.535 203.993 137.884 204.438 136.38 205.256V205.256ZM136.928 216.842C137.895 217.616 138.379 216.701 139.281 216.349C140.119 216.032 140.99 216.208 141.892 215.997C143.053 215.715 144.374 215.75 145.502 215.75C145.792 215.75 146.34 215.785 146.63 215.821C147.146 215.891 147.082 215.997 147.63 216.137C147.831 216.085 148.036 216.05 148.242 216.032C148.363 216.027 148.484 216.057 148.591 216.119C148.698 216.181 148.789 216.272 148.854 216.384C149.338 216.56 149.499 216.454 149.95 216.56C150.985 216.869 151.894 217.552 152.529 218.497C153.947 220.398 154.012 223.286 153.98 225.645C153.947 226.314 153.947 226.984 153.98 227.652C154.044 228.286 154.431 229.202 154.27 229.8C154.012 230.716 153.27 230.505 152.368 230.575C151.852 230.61 151.304 230.962 150.917 230.998C150.498 231.033 150.337 230.857 149.95 230.751C148.887 230.505 147.63 230.857 146.566 231.174C145.502 231.491 144.535 231.808 143.439 232.054C142.73 232.195 142.086 232.301 141.376 232.371C140.796 232.441 140.538 232.794 140.023 232.934C139.539 233.075 139.056 232.864 138.54 232.97C137.863 233.11 137.379 233.674 136.767 233.92C135.897 234.308 134.543 233.744 134.156 234.906C133.995 233.78 133.028 234.096 132.287 233.991C131.094 233.815 129.901 233.251 128.741 232.864C127.806 232.547 124.518 229.73 123.906 230.857C123.906 230.751 124.035 230.082 123.906 230.012C123.551 229.73 123.551 229.906 123.197 229.73C122.731 229.53 122.312 229.217 121.972 228.814C121.134 227.934 120.006 227.476 119.135 226.702C116.944 224.694 116.17 220.61 115.654 217.722C114.945 219.095 115.203 217.335 115.332 216.736C115.622 215.363 115.235 214.694 115.171 213.356C115.106 212.123 115.59 211.877 116.621 211.771C117.859 211.625 119.087 211.389 120.296 211.067C121.463 210.785 122.59 210.335 123.648 209.729C124.615 209.13 125.614 208.919 126.614 208.39C127.71 207.827 128.773 207.228 129.869 206.665C130.353 206.418 132.544 204.623 132.899 204.728C133.673 204.939 132.931 206.418 132.706 206.806C132.093 207.792 131.094 208.25 130.191 208.883C129.386 209.447 126.936 212.123 129.418 211.877C131.062 211.701 132.19 209.799 133.254 211.947C133.64 212.722 134.188 213.32 133.737 214.095C133.125 215.187 131.416 215.715 130.514 216.454C129.74 217.088 128.161 220.046 129.74 220.363C130.006 220.418 130.279 220.408 130.54 220.335C130.802 220.262 131.046 220.127 131.255 219.941C131.481 219.694 131.481 219.131 131.706 218.955C132.029 218.708 132.673 219.025 133.06 218.884C133.608 218.673 133.705 218.356 133.931 217.792C134.511 218.074 134.511 218.462 135.155 218.109C135.381 218.004 135.445 217.546 135.703 217.405C136.026 217.229 136.155 217.757 136.316 217.687C136.767 217.616 136.767 217.37 136.928 216.842V216.842ZM102.632 208.109C101.665 208.179 100.634 208.285 99.7956 207.616C100.795 207.686 101.665 207.933 102.664 207.686C103.051 207.581 103.696 207.193 104.115 207.334C105.533 207.827 103.019 208.073 102.632 208.109V208.109ZM99.9567 115.99C99.9567 115.637 99.6666 110.672 101.214 112.609C101.633 113.137 101.182 113.841 101.117 114.44C101.061 115.439 101.31 116.43 101.826 117.257C102.278 118.032 103.116 118.736 102.987 119.722C102.89 120.603 102.052 121.377 101.633 122.117C100.634 120.426 100.053 118.067 99.9567 115.99ZM96.5723 64.014C92.9718 64.4145 89.4118 65.1688 85.9353 66.2677C82.5508 67.3593 79.3597 69.12 76.1686 70.7751C75.524 67.7115 74.8148 64.6127 74.1702 61.5491C73.8479 60.0701 73.5578 58.5911 73.2677 57.0769C73.0743 56.0205 72.3007 54.0485 72.623 52.9921C72.7842 52.4287 73.0098 52.4287 73.3644 52.1118C73.619 51.8128 73.8997 51.5415 74.2024 51.3019C75.0221 50.996 75.8827 50.8413 76.7488 50.8441C77.2646 50.8793 77.5547 51.0906 78.0704 50.9497C78.5217 50.8089 78.9085 50.4215 79.3275 50.2102C80.4234 49.682 81.7772 49.506 82.9376 49.2242C84.0658 48.9425 85.1939 48.9073 86.3221 48.6256C87.2891 48.3791 87.7726 47.6044 88.6107 47.6396C90.8773 47.6977 93.1415 47.4374 95.3474 46.8649C97.7649 46.2311 100.408 46.3367 102.89 46.2663C103.889 46.2311 104.566 45.9846 104.598 47.2171C104.598 48.696 104.05 50.3511 103.792 51.7596C103.148 54.8924 102.696 58.0687 102.439 61.2673C102.31 62.8872 101.73 62.7815 100.505 63.2745C99.2154 63.8027 97.9905 63.838 96.5723 64.014V64.014ZM77.6836 96.6924C78.5539 96.8332 78.4572 94.1922 78.5217 93.664C80.6168 97.9953 83.0021 102.186 84.8716 106.693C85.2906 107.75 85.7097 108.806 86.1609 109.862C86.4833 110.567 87.1924 111.517 87.1602 112.363C87.1279 113.208 86.5155 113.56 85.8386 113.877C85.0972 114.229 84.8394 114.405 84.3236 113.982C83.7112 113.489 83.1955 112.01 82.8087 111.306C82.2285 110.214 81.6805 109.088 81.1003 107.996C80.0689 105.989 78.844 104.087 78.0059 101.974C77.2001 100.002 76.0075 98.3122 75.1372 96.3755C74.2991 94.4739 73.1065 92.6428 72.1395 90.7765C73.1065 90.3187 74.3314 89.2271 75.4595 89.2623C76.6199 89.3327 76.5877 90.53 76.6199 91.5512C76.6844 92.5724 76.3298 96.4459 77.6836 96.6924V96.6924ZM80.5201 116.306C80.0044 116.976 78.8118 117.398 78.0704 117.75C77.0712 118.278 76.0397 118.736 75.0405 119.264C71.7527 121.025 68.4649 122.61 65.1127 124.23C63.3721 125.075 61.6637 125.955 59.9876 126.871C59.1173 127.364 57.1511 129.054 56.1196 129.089C54.9592 129.124 54.927 126.554 54.6691 125.603C54.4435 124.793 54.0567 124.159 53.7666 123.384C53.6699 123.067 53.7343 122.821 53.5732 122.539C53.3798 122.187 52.8318 121.905 52.5739 121.589C51.4136 120.286 50.4466 118.631 49.4473 117.187C48.5448 115.849 46.9976 114.194 46.5786 112.539C45.7405 109.334 50.6722 107.538 52.5739 106.235C55.894 103.982 59.214 101.658 62.3728 99.1221C63.8233 97.9601 65.2094 96.798 66.6599 95.636C67.3367 95.1078 69.2063 93.0301 70.0766 93.7696C70.3989 94.0513 70.3989 94.7908 70.5278 95.2134C70.8417 96.0581 71.2417 96.8613 71.7205 97.6079C72.1073 98.3122 72.6875 99.0165 72.9453 99.7912C73.2354 100.707 73.2354 101.235 73.7834 102.045C74.7826 103.524 75.2661 105.249 76.1686 106.799C77.0712 108.278 77.9092 109.369 78.4894 110.989C78.8118 111.94 79.3597 112.75 79.811 113.63C80.0366 114.053 80.2623 114.44 80.4557 114.863C80.8747 115.673 81.0036 115.673 80.5201 116.306V116.306ZM52.2516 128.878C51.607 129.371 50.6722 128.526 50.0598 128.526C49.8019 128.526 49.544 128.737 49.3506 128.737C48.8027 128.737 48.3836 128.314 47.8679 128.138C45.5794 127.293 42.8718 127.258 40.9378 125.532C37.0698 122.117 38.9071 115.25 39.6162 110.813C39.7451 109.898 40.003 108.665 39.3583 107.926C38.617 107.116 37.5211 107.609 36.8442 108.242C36.1673 108.912 35.6838 109.862 35.1036 110.637C34.201 111.905 33.2018 113.067 32.2026 114.229C28.6247 118.349 24.8534 123.103 20.4375 126.131C18.6002 127.399 16.924 129.089 14.9256 130.075C12.5081 131.237 14.9901 126.765 15.4413 126.025C18.3101 121.272 22.4359 117.504 25.9493 113.348C26.594 112.574 27.5288 111.517 27.561 110.355C27.5932 108.665 26.2072 108.806 25.1113 109.264C24.0798 109.721 23.5963 110.813 22.7583 111.553C21.6946 112.458 20.5745 113.282 19.406 114.018C16.9276 115.6 14.3779 117.046 11.7667 118.349C10.5419 118.983 9.34925 119.581 8.12439 120.18C7.80205 120.356 5.8036 121.729 5.9003 120.532C5.9003 120.356 7.18962 118.666 7.35079 118.631C8.12439 118.314 8.51118 119.264 9.22031 118.032C9.70381 117.152 9.80051 116.694 10.4774 116.025C10.6063 115.919 10.6708 115.637 10.7675 115.426C10.7675 115.497 11.2832 114.933 11.1865 115.039C11.3455 114.872 11.4961 114.695 11.6378 114.511C12.1858 113.736 13.2495 113.701 13.7007 112.82C13.8941 112.468 13.7652 112.046 13.9908 111.693C14.3132 111.236 14.9578 111.024 15.3446 110.602C15.667 110.25 15.8926 109.968 16.086 109.721C16.2149 109.581 16.4405 109.475 16.6017 109.299C16.9885 108.876 16.9563 108.489 17.5042 108.137C17.9877 107.82 18.2134 108.102 18.3745 107.327C18.9547 107.749 18.8903 107.151 19.1481 106.693C19.4705 106.13 19.8573 105.883 20.2763 105.461C21.2111 104.545 22.1136 103.207 22.9194 102.08C24.9179 99.263 26.5618 95.9529 27.142 92.3963C27.2709 91.5512 27.3676 90.706 27.4321 89.8257C27.4643 89.3679 27.3354 88.2763 27.5932 87.8185C27.98 87.1142 28.7536 87.396 29.3338 87.1142C29.5272 87.0086 29.7206 86.7269 29.914 86.6565C30.1719 86.5508 30.4942 86.6565 30.7521 86.5508C30.8488 86.5156 30.881 86.1987 31.0422 86.1283C31.3766 86.0994 31.7131 86.1231 32.0414 86.1987C32.7648 86.1933 33.4829 86.0626 34.1688 85.8113C34.8135 85.5648 35.3292 85.0718 35.9739 84.8606C36.2928 84.925 36.6187 84.9369 36.9409 84.8958C37.0053 84.6141 37.0376 84.2971 37.102 84.0154C37.5211 84.3324 38.9393 84.7549 39.3906 84.6845C40.0997 84.5789 39.9385 83.8746 40.551 84.7901C40.9055 84.4732 41.2279 84.1211 41.5824 83.8042C41.8403 85.0014 43.6131 84.4028 44.4512 84.4732C45.5793 84.5789 46.4819 84.3324 47.5133 84.7549C48.7704 85.2831 49.8986 85.8465 51.2524 85.9874C52.2194 86.093 52.6062 86.586 53.5409 86.8677C54.798 87.2551 54.8947 87.7129 54.5079 89.1214C54.1856 90.2483 53.9277 91.1286 54.379 92.2907C55.2171 94.3683 57.4412 95.2134 58.8917 96.622C55.5072 99.2278 52.1872 101.763 48.8994 104.51C47.5456 105.672 46.0628 106.834 45.2893 108.559C44.5801 110.179 44.1611 112.081 43.7421 113.806C42.7428 117.75 45.5471 120.391 48.4159 122.117C48.9638 122.645 53.0574 128.244 52.2516 128.878V128.878ZM46.6753 133.667C46.4819 132.892 46.5141 132.716 47.1588 132.434C47.4166 132.329 48.3836 132.188 48.5448 132.575C48.8994 133.42 47.0298 133.42 46.6753 133.667ZM75.1372 78.7686C75.3628 80.4588 75.6207 82.1139 75.8141 83.8042C75.943 84.7197 76.2009 85.5648 75.5562 86.2691C75.2016 86.6565 74.3314 86.8325 73.8479 87.0438C73.171 87.3607 72.5263 87.7129 71.9139 88.065C70.7857 88.7341 69.5931 89.1214 68.4649 89.6848C67.9814 89.9313 67.6913 90.4595 67.2723 90.7765C66.6921 91.2342 65.983 91.4808 65.4028 91.9385C64.3391 92.7484 63.3721 93.6992 62.2761 94.5091C61.0513 95.4247 60.8256 95.143 60.1487 93.7696C59.5363 92.5372 58.795 91.9737 57.9247 91.023C57.5701 90.6356 56.3775 88.5228 57.4089 88.3467C57.6668 88.3115 58.6016 88.7341 58.795 88.8749C59.1173 89.0862 59.6008 90.2835 59.8587 90.3187C60.3099 90.3539 60.9223 88.9101 61.2124 88.5228C63.1047 85.9925 65.1623 83.6152 67.369 81.4096C68.4931 80.2815 69.7005 79.2568 70.9791 78.346C71.8816 77.7122 72.6875 76.7966 73.59 76.1628C73.7785 75.987 73.9978 75.8552 74.2346 75.7754C74.7181 75.5289 74.8793 75.7402 74.7504 76.374C75.0727 77.0079 75.0405 78.0643 75.1372 78.7686V78.7686ZM33.7498 76.5501C34.201 76.0219 34.7812 75.6346 35.2003 75.0711C35.4259 74.7542 35.5871 74.1908 35.8449 73.9795C36.2962 73.6274 36.9409 73.7682 37.4566 73.3105C37.9723 72.8527 38.3913 72.2893 38.9071 71.7963C39.9708 70.7398 41.0989 69.7539 42.1304 68.6975C42.7428 68.0988 43.3553 67.2889 43.871 66.9015C44.0078 66.7646 44.1593 66.6464 44.3223 66.5494C44.6446 66.3733 44.8058 66.5494 45.257 66.3733C45.5793 66.2677 45.7727 65.8451 46.0306 65.6339C46.6108 65.1409 47.3844 64.9648 47.9646 64.507C48.5448 64.0492 48.8027 63.3097 49.5763 62.9576C50.511 62.4998 51.2202 62.852 51.8971 61.9716C52.1872 61.6195 52.2516 61.1617 52.7029 60.9152C53.2186 60.6335 53.7021 60.9152 54.1856 60.6335C54.5402 60.4222 54.7658 59.9644 55.1204 59.7532C55.7328 59.3306 56.4419 59.2954 57.0221 58.7672C57.5056 58.3446 57.2478 58.3798 57.828 58.2038C58.1 58.15 58.3691 58.0795 58.6338 57.9925C59.5041 57.6755 60.9546 57.253 61.4703 56.3374C61.7282 56.76 61.8249 56.8304 62.2439 56.7248C62.4638 56.5197 62.6686 56.296 62.8563 56.0557C62.8784 56.0983 62.9097 56.1343 62.9476 56.1605C62.9854 56.1866 63.0286 56.2022 63.0733 56.2057C63.118 56.2091 63.1628 56.2005 63.2037 56.1805C63.2445 56.1604 63.2803 56.1297 63.3076 56.0909C64.2424 55.7388 65.0804 55.1402 66.0152 54.8232C66.1509 54.8921 66.2804 54.9746 66.402 55.0697C66.5954 55.0697 66.6599 54.9993 66.6276 54.788C67.0031 54.6962 67.37 54.5665 67.7235 54.4007C68.3682 54.0837 69.0451 53.3795 69.8187 53.626C71.0758 54.0485 71.1403 56.8304 71.3337 57.9573C71.8494 60.6687 72.3974 63.4154 72.9453 66.1268C73.171 67.2185 73.3644 68.3453 73.6545 69.4369C73.8479 70.1412 74.2991 71.1976 74.138 71.9371C73.9446 72.8527 73.1065 73.1696 72.3974 73.5922C71.4427 74.1838 70.5174 74.8303 69.6253 75.5289C65.7896 78.4164 62.9208 82.3956 60.2132 86.4804C59.4915 85.4915 58.5629 84.7065 57.5056 84.1915C56.9254 83.945 56.3775 84.1563 55.7973 83.8394C55.3902 83.5661 55.0023 83.2601 54.6369 82.9238C52.147 81.1685 49.3994 79.894 46.5141 79.1559C40.7766 77.7826 35.168 79.8954 29.5917 80.9166C30.7198 79.0855 32.4282 78.0291 33.7498 76.5501V76.5501ZM72.1717 30.4905C73.1387 27.0044 74.8148 23.5886 77.1679 20.9828C78.347 19.6257 79.7602 18.5367 81.326 17.7784C82.6797 17.1445 84.2914 16.5107 84.2914 18.5883C84.2592 23.0604 83.2922 27.4621 83.1955 31.9343C83.0988 36.3008 83.7434 39.8222 86.1932 43.3788C84.646 43.7661 83.131 44.1535 81.5838 44.576C80.4234 44.893 79.1986 45.2451 78.1026 45.4564C77.034 45.6147 75.978 45.862 74.9438 46.1959C74.2347 46.4776 73.0743 47.2875 72.3007 47.1114C71.0113 46.8297 71.3014 41.6885 71.237 40.456C70.9667 37.0995 71.2839 33.7174 72.1717 30.4905V30.4905ZM96.0243 37.2516C97.7971 34.8923 99.6666 32.1456 102.664 31.6878C105.565 31.2652 106.629 35.0683 106.436 37.6389C106.371 38.5193 106.242 40.7729 105.694 41.442C105.05 42.2167 103.921 41.6181 103.116 41.5124C99.6344 40.9842 96.0243 41.8646 92.5431 41.8646C93.6713 40.3152 94.8639 38.801 96.0243 37.2516V37.2516ZM110.368 46.6536C111.593 46.8297 112.56 47.041 111.98 48.5552C110.819 51.5836 109.917 54.4711 110.916 57.7812C111.69 60.3166 114.204 63.3802 116.686 63.8732C117.556 64.0492 118.878 63.7323 119.393 64.7183C119.877 65.5634 119.361 68.1692 119.297 69.12C119.103 72.6766 118.265 76.2332 116.138 79.0151C114.268 81.5153 111.947 83.452 109.24 81.0927C106.919 79.1207 105.565 75.5641 104.888 72.5357C104.583 70.9251 104.421 69.2859 104.405 67.641C104.34 66.1621 104.083 65.2465 105.598 64.9296C106.017 64.8591 107.016 64.8592 107.016 64.1901C107.016 63.2745 105.92 63.6267 105.501 63.5915C103.889 63.4154 104.631 61.3378 104.792 60.0349C105.05 57.7812 105.469 55.5275 105.855 53.2738C106.178 51.3723 106.21 48.8369 106.919 47.0762C107.338 46.0198 109.562 46.548 110.368 46.6536V46.6536ZM113.366 53.3795C113.559 52.147 113.656 50.5976 114.784 49.9285C116.009 49.189 116.621 50.3863 117.234 51.4075C118.845 54.0485 120.618 56.5135 120.908 59.8236C120.941 60.2109 121.102 60.9856 120.747 61.2673C120.586 61.373 120.231 61.0561 119.974 61.0913C118.684 61.1969 117.782 61.5491 116.525 60.7744C115.354 60.0602 114.419 58.9615 113.852 57.6342C113.285 56.3069 113.115 54.8183 113.366 53.3795V53.3795ZM122.971 60.7744C122.713 57.8868 121.489 55.3514 120.135 52.9217C119.458 51.7244 118.168 50.4215 117.717 49.1538C117.459 48.4848 117.911 47.6396 118.813 47.9213C119.264 48.0622 120.135 49.3651 120.425 49.8229C121.181 51.001 121.86 52.2366 122.456 53.5203C123.068 54.8937 124.937 59.8236 122.971 60.7744ZM114.913 32.1808C115.042 29.4693 115.074 26.3705 116.686 24.1168C117.943 22.3914 120.199 21.6167 122.036 20.9476C124.518 20.032 127.516 19.8912 130.095 20.2081C132.383 20.4546 134.124 22.1801 135.51 24.0464C136.96 25.948 138.056 28.4129 139.056 30.5962C139.313 31.1596 141.409 34.7162 139.99 34.6105C139.442 34.5753 138.927 33.3781 138.508 33.0259C138.185 32.7442 137.766 32.7794 137.476 32.5681C137.154 32.3216 137.218 32.1104 136.96 31.8287C135.22 29.8215 133.64 30.9835 131.771 32.0399C131.674 31.3357 131.835 30.0328 131.287 29.5045C130.578 28.8355 129.837 29.8919 129.353 30.4201C128.902 30.9131 128.322 31.7582 127.742 32.0399C127 32.3921 127.258 32.0047 126.581 31.723C125.26 31.1596 124.261 32.8499 123.584 33.8006C123.326 34.1528 122.939 35.0683 122.488 35.174C122.069 35.2796 122.004 34.9275 121.617 34.8218C120.554 34.4697 120.264 35.2796 119.941 36.3008C119.603 37.4388 119.183 38.5456 118.684 39.6109C117.685 41.5124 117.266 42.1111 118.04 44.1887C116.911 44.3647 116.654 44.5056 116.106 43.414C115.566 42.3896 115.319 41.2123 115.396 40.0335C115.525 37.322 114.784 34.9627 114.913 32.1808V32.1808ZM141.344 45.1042C142.575 47.6711 143.237 50.5174 143.278 53.4147C143.278 54.7528 143.214 56.3726 142.633 57.5699C142.086 58.732 140.957 59.2954 139.894 59.7884C137.347 60.9856 134.511 60.9504 131.835 60.4222C130.449 60.1405 129.096 60.3166 127.935 59.401C127.033 58.732 125.969 58.0629 125.711 56.7952C125.614 56.267 125.776 55.8444 125.743 55.3162C125.782 55.0818 125.771 54.841 125.711 54.612C125.55 54.5063 125.389 54.4359 125.228 54.3302C125.099 53.9429 125.356 53.5203 125.292 53.0978C125.228 52.6048 124.841 52.2174 124.68 51.7596C124.196 50.5272 124.551 49.8581 125.453 49.013C125.679 48.8369 125.872 48.6608 126.098 48.4495C126.291 48.0974 126.517 48.0974 126.743 48.4495C127.162 48.4495 127.162 48.5904 127.613 48.4495C128.612 48.1326 129.418 46.9706 130.385 46.5832C130.772 46.4424 131.32 46.548 131.642 46.2663C131.9 46.0198 131.739 45.4564 131.964 45.2099C132.738 44.4 133.931 45.1747 134.64 43.9774C135.22 43.0266 135.091 41.6533 135.155 40.5617C136.928 40.949 137.702 42.7801 139.152 43.7309C139.442 42.4984 139.475 42.5336 140.603 42.2167C140.087 43.2731 140.893 44.2591 141.344 45.1042V45.1042ZM142.698 32.1456C143.02 32.6034 143.278 33.7654 142.698 33.871V32.1456ZM144.213 36.3008C146.92 36.3008 148.661 40.0687 149.435 42.3576C150.305 44.893 151.208 48.2383 149.596 50.7032C148.983 51.654 148.21 51.7244 147.243 51.6188C146.05 51.4779 145.438 51.2666 145.889 49.8933C146.759 47.2875 146.115 43.9422 144.567 41.7589C146.695 41.3012 145.341 39.1531 144.277 38.3784C143.02 37.4276 142.021 36.2656 144.213 36.3008ZM82.2929 171.698C81.6483 173.564 81.0036 175.395 80.4557 177.297C79.9399 179.093 80.23 181.135 79.6176 182.86C79.2308 182.649 79.1341 182.262 78.7795 182.051C78.5861 181.91 78.1993 181.839 78.0382 181.698C77.5594 181.217 77.1371 180.673 76.7811 180.079C76.0719 178.74 76.5554 176.592 76.91 175.254C77.3643 173.549 78.1567 171.974 79.2308 170.641C79.9722 169.726 80.3912 170.007 81.3582 170.465C81.9706 170.712 82.583 170.888 82.2929 171.698V171.698ZM77.458 186.276C76.9422 187.403 76.0075 188.319 75.4595 189.481C74.8793 190.678 74.4281 192.016 73.6867 193.108C72.9131 194.235 72.2362 194.023 71.2047 194.516C70.8179 194.692 70.6568 195.009 70.3667 195.256C69.7865 195.713 69.174 195.995 68.5616 196.418C68.1426 195.291 66.8533 189.551 65.1771 189.692C63.7266 189.798 64.468 192.791 64.6614 193.671C64.8056 194.425 64.9995 195.166 65.2416 195.89C65.4672 196.629 66.2408 197.721 65.9507 198.495C65.5962 199.517 64.7259 199.446 64.2746 198.707C63.92 198.073 63.7266 197.263 63.4365 196.559C63.2109 195.96 62.115 192.72 61.1802 193.249C60.2777 193.741 61.6959 196.876 61.9216 197.474C62.5018 198.953 63.5977 200.397 62.1472 201.594C59.9553 203.39 57.2478 204.763 54.798 206.066C53.3798 206.841 52.0905 207.827 50.5755 208.461C49.1895 209.024 47.5778 209.13 46.224 209.799C45.9017 209.975 46.1273 210.151 45.6438 210.257C45.2248 210.327 44.5157 210.116 44.0966 210.116C43.3768 210.157 42.6553 210.145 41.937 210.081C41.518 210.01 40.6154 209.552 40.7444 210.327C40.1642 210.151 39.9385 209.517 39.5195 209.13C39.1193 208.826 38.6991 208.556 38.2624 208.32C37.3921 207.757 36.7475 207.088 36.4896 205.996C35.8772 203.425 37.1665 200.749 38.7459 198.988C39.6484 197.967 40.7121 197.122 41.5502 195.995C41.8045 195.577 42.096 195.188 42.4205 194.833C42.8718 194.446 43.4842 194.411 43.9355 194.023C44.2578 193.742 44.3545 193.284 44.7091 193.002C45.2248 192.615 45.805 192.756 46.2885 192.263C46.5463 191.981 47.5133 190.572 47.4489 190.185C47.7067 190.291 47.9646 190.361 48.2225 190.467C48.3836 189.621 49.7374 188.565 50.4143 188.143C50.7367 187.931 51.4136 187.931 51.6714 187.72C51.9938 187.438 51.9938 186.804 52.2516 186.417C53.0252 185.361 54.6046 184.868 55.6039 184.128C56.8909 183.173 58.1184 182.126 59.2785 180.994C61.6376 178.73 63.6889 176.109 65.3705 173.212C66.066 172.061 66.6699 170.848 67.1756 169.585C67.4657 168.81 67.7558 167.402 68.4971 166.944C69.2707 166.486 71.0113 167.12 71.8494 167.19C73.1065 167.296 75.0405 167.226 76.1686 167.895C77.3613 168.599 76.3943 169.198 75.7818 170.043C74.9256 171.344 74.2822 172.797 73.8801 174.339C73.5255 175.501 73.4611 176.628 73.2354 177.79C73.0098 179.022 73.0098 180.677 73.5578 181.804C74.0735 182.896 78.0382 185.008 77.458 186.276V186.276ZM30.2686 208.954C27.5932 204.939 29.8173 199.094 32.4282 195.854C35.5871 191.946 40.1319 189.762 43.8388 186.593C48.1258 182.931 52.5417 179.515 56.3452 175.219C58.2569 173.044 59.9732 170.674 61.4703 168.141C62.7596 165.993 63.6944 163.141 66.3053 162.824C64.7581 164.937 64.6614 167.93 63.501 170.289C62.2439 172.754 60.3744 174.832 58.5049 176.733C54.5079 180.748 50.1887 184.41 45.8694 188.002C43.6776 189.833 41.518 191.734 39.3261 193.565C37.3599 195.22 35.297 196.629 34.1688 199.129C32.2026 203.46 32.1059 209.869 36.4251 212.546C34.1688 212.053 31.6546 211.031 30.2686 208.954V208.954ZM264.701 28.589C263.895 26.8635 262.412 26.2297 260.929 25.5606C259.479 24.8915 258.125 24.0816 256.513 23.8703C255.804 23.7647 253.741 24.0112 253.645 22.8491C253.58 21.8984 255.708 20.9476 256.191 20.2081C256.932 19.1165 257.416 17.391 257.126 16.0177C256.868 14.7148 255.708 14.3274 254.644 14.0809C251.324 13.3414 247.778 13.9049 244.426 14.1866C244.845 13.5527 245.425 13.0597 245.747 12.285L246.263 13.4823C246.558 12.7911 246.891 12.1207 247.262 11.4751L248.036 12.4259C247.617 10.806 249.035 10.806 248.874 9.46792C248.81 8.93971 248.487 8.69322 248.391 8.27065C248.229 7.42552 248.842 6.89732 248.165 6.12261C247.391 5.24227 246.166 5.59441 245.296 5.66483C245.199 5.66483 245.038 5.91133 244.877 5.94654C244.684 5.98176 244.555 5.66483 244.329 5.70005C243.685 5.73526 243.104 6.29868 242.427 6.47475C239.398 7.24945 236.368 8.658 233.434 9.96091C230.469 11.299 227.568 12.8484 224.989 14.9613C222.217 17.2149 220.219 20.0673 218.027 22.9196C216.995 24.2577 215.9 25.5254 215.126 27.0748C214.707 27.8847 214.352 30.3497 213.611 30.737C212.805 31.1244 210.807 30.0328 210.001 29.8215C208.1 29.3419 206.149 29.1406 204.199 29.2228C202.619 29.2933 200.976 29.258 199.428 29.4693C198.526 29.575 196.27 30.7018 196.141 31.8991C196.076 32.4273 196.656 32.8851 196.785 33.4133C196.979 34.188 196.656 34.9979 196.882 35.7726C197.333 37.3572 199.428 37.9206 200.685 38.4136C204.167 39.787 207.68 40.8786 211.161 42.1111C212.676 42.6393 213.998 43.5196 215.352 44.3647C216.48 45.069 217.543 45.8085 216.383 47.1466C215.287 48.4143 215.416 48.9425 215.738 50.668C216.093 52.4991 216.19 54.3655 216.641 56.1966C217.092 58.0277 217.93 59.7532 217.769 61.6899C217.608 63.6267 216.867 65.5986 216.19 67.3593C215.513 69.12 214.739 70.8807 213.998 72.6414C213.321 74.2612 212.547 75.9163 210.968 76.5853C207.906 77.8882 204.005 77.677 200.847 77.2192C197.18 76.7034 193.579 75.7347 190.113 74.3317C186.825 72.9935 183.215 70.9159 180.507 68.451C179.057 67.148 177.478 66.1621 175.963 65C174.415 63.8027 173.223 62.2181 171.869 60.7744C169.194 57.9925 165.906 56.0557 162.521 54.5415C158.718 52.816 154.785 52.9921 150.724 52.816C151.369 51.4427 152.175 50.1398 152.465 48.6256C152.787 47.041 152.561 45.3155 152.368 43.7309C151.981 40.6673 151.24 37.9558 149.467 35.4557C148.661 34.3288 147.694 33.4485 146.34 33.2724C145.534 33.1668 143.987 33.8711 143.407 33.0963C143.149 32.7442 143.214 32.0399 143.053 31.6526C142.84 31.289 142.646 30.9128 142.472 30.5257C141.766 28.867 140.97 27.256 140.087 25.7015C139.765 25.0676 139.475 24.1168 139.023 23.5886C138.765 23.3069 138.443 23.1661 138.314 22.9548C138.056 22.5674 137.927 21.8279 137.702 21.3702C137.326 20.5923 136.86 19.8704 136.316 19.2221C135.432 18.162 134.341 17.3318 133.125 16.7924C132.543 16.5335 131.914 16.425 131.287 16.4755C131.094 16.4755 130.868 16.6163 130.643 16.6163C130.159 16.5811 130.224 16.3698 129.837 16.2994C127.226 15.7008 123.713 16.5459 121.263 17.5671C118.684 18.6587 116.589 20.0673 115.01 22.6379C111.142 28.9059 112.044 37.0403 113.688 43.9422C112.689 43.6605 111.722 43.3083 110.723 43.0971C110.11 42.9562 109.272 42.9914 108.724 42.6393C107.499 41.8646 108.499 39.8574 108.499 38.5545C108.531 35.2444 107.08 30.068 103.986 28.6946C100.73 27.2509 96.7979 31.3357 94.7994 33.6246C93.5101 35.1035 92.3497 36.7234 91.1248 38.2376C90.2545 39.3292 89.1264 41.0194 87.6114 40.7377C84.3236 40.1391 85.3229 33.2724 85.484 30.9835C85.7097 27.3213 86.1932 23.6238 86.2254 19.9616C86.2254 17.7432 85.8708 14.7148 83.3567 14.4683C79.9077 14.1161 76.6521 17.5319 74.6537 20.1729C69.3674 27.11 68.1748 36.3008 69.5931 45.0338C69.7865 46.3015 70.4634 47.8861 69.2063 48.696C67.5301 49.7525 65.4028 50.3863 63.6299 51.1258C59.633 52.8513 55.9262 55.1049 52.1549 57.3586C48.4159 59.5771 44.7735 61.7603 41.389 64.6127C38.0097 67.4384 34.7711 70.4593 31.6868 73.6626C30.1719 75.2824 28.6892 76.9375 27.3031 78.6982C26.0138 80.3532 24.9501 82.2195 23.5318 83.7337C22.5649 84.7901 20.792 86.1635 20.5986 87.7833C20.4375 89.0862 22.4037 89.9666 23.3062 90.5652C23.9186 90.9878 24.3377 90.9525 24.4021 91.692C24.4666 92.6076 23.5963 94.0514 23.274 94.9317C22.4899 97.0576 21.4138 99.0406 20.0829 100.812C17.053 104.862 13.4106 108.313 9.96168 111.94C6.73836 115.285 3.57951 118.595 1.22648 122.751C0.646286 123.772 -0.804208 125.849 0.581819 126.835C0.936384 127.082 2.03231 127.293 2.38688 127.011C2.83814 126.695 2.61251 126.202 3.12824 125.849C2.99931 126.941 7.60865 124.793 7.96322 124.582C8.93021 124.053 9.80051 123.42 10.7997 122.927C11.3799 122.645 11.4444 122.258 11.8957 121.941C12.1213 121.765 12.1535 122.011 12.4759 121.905C12.766 121.8 13.4429 121.765 13.6685 121.483C13.6685 121.483 13.8941 120.743 13.7007 120.884C14.4743 120.286 14.9578 121.201 14.4743 122.046C13.0883 124.546 11.3155 126.413 10.7675 129.406C10.5741 130.498 10.2195 132.54 10.832 133.526C10.8642 133.561 11.0576 133.456 11.0898 133.491C11.1968 133.653 11.3154 133.806 11.4444 133.949C11.9924 134.512 11.9601 134.758 12.8627 134.758C13.387 134.766 13.9092 134.682 14.4099 134.512C14.7 134.371 14.8289 133.984 15.0223 133.878C15.2479 133.737 15.2157 133.667 15.4091 133.596C15.4413 133.596 15.538 133.949 15.6025 133.949C16.0215 133.843 16.2149 133.596 16.5695 133.35C17.6332 132.716 18.6646 131.977 19.6639 131.343C20.6631 130.674 21.4367 129.758 22.4359 128.983C23.4996 128.173 24.3699 127.54 25.208 126.413C25.7882 125.638 26.4651 125.356 26.8196 124.969C27.2709 124.511 28.0445 122.751 28.7859 122.539C29.1082 122.434 29.3983 122.751 29.5595 122.645C29.7529 122.504 29.5272 122.222 29.6562 122.046C29.7944 121.794 29.9814 121.578 30.2041 121.412C30.6232 121.06 31.1389 120.955 31.4934 120.462C31.8802 119.933 31.9447 119.335 32.4282 118.842C33.5886 117.645 34.6201 116.377 35.8449 115.25C35.3614 118.138 34.9102 120.99 35.2647 123.913C35.6193 126.73 36.7152 128.033 38.8748 129.441C39.3423 129.816 39.8384 130.145 40.3576 130.427C40.6799 130.568 41.1312 130.498 41.3568 130.568C42.1304 130.92 41.8725 131.589 41.9692 132.399C42.1304 133.596 43.1619 134.547 43.8065 135.498C44.3545 136.308 45.3537 138.104 46.2885 138.385C47.1265 138.632 47.9001 137.576 48.6093 137.118C49.684 136.472 50.7926 135.896 51.9293 135.392C54.0889 134.301 56.1841 132.998 58.3115 131.836C59.2785 131.308 60.2777 131.096 61.3091 130.744C62.5662 130.322 63.5977 129.547 64.7903 129.019C66.95 128.068 68.9806 126.906 71.108 125.885C75.524 123.807 80.3267 122.363 84.2592 119.194C86.032 117.785 88.3206 117.609 90.0612 116.236C91.8984 114.792 90.7703 112.609 89.9967 110.813C87.8693 105.989 86.58 100.953 83.6467 96.5867C82.1318 94.2978 80.7135 91.9385 79.392 89.5088C78.1993 87.3607 78.2316 84.931 77.9415 82.5012C77.7481 80.8814 77.5547 79.2616 77.329 77.6417C77.1679 76.6205 76.6844 75.3176 77.2646 74.4021C77.9092 73.4161 79.4242 72.9583 80.3912 72.4653C81.5624 71.761 82.7675 71.1262 84.0013 70.5638C86.8714 69.3408 89.8243 68.3636 92.8332 67.641C93.7357 67.3945 97.5392 65.7747 98.2484 66.7255C97.3459 67.3593 97.088 68.5566 96.7012 69.5778C96.121 71.092 95.4763 72.5357 95.0573 74.1204C94.1548 77.3952 93.4134 80.7053 92.672 84.0154C91.9307 87.3255 91.0926 90.6356 90.867 94.0161C90.738 95.7416 90.8347 97.4671 90.8347 99.2278C90.8347 101.094 90.4802 102.89 90.5446 104.756C90.5769 105.989 90.6736 107.468 91.3505 108.524C91.9629 109.51 92.9944 109.616 93.8969 110.144C95.0895 110.848 95.573 111.13 95.573 112.609C95.573 114.37 95.4763 116.06 95.6375 117.821C96.1532 123.877 98.0227 131.096 101.762 135.78C102.02 136.097 109.24 146.062 110.046 144.583C110.594 145.287 111.432 145.569 112.109 146.168C113.172 147.154 114.236 147.928 115.106 149.126C116.718 151.344 118.072 153.915 118.491 156.732C118.845 159.162 118.62 162.049 117.363 164.162C116.106 166.275 113.43 167.648 111.4 168.705C108.724 170.078 106.049 170.219 103.148 169.867C101.73 169.69 100.311 169.444 98.893 169.198C98.3128 169.092 97.6037 169.092 97.0558 168.845C96.4433 168.599 96.2499 168.282 95.6697 168.282C95.2827 168.305 94.8946 168.293 94.5093 168.247C93.9291 168.106 93.2845 167.859 92.7043 167.719C92.0885 167.534 91.4938 167.274 90.9315 166.944C90.3835 166.627 89.7711 166.592 89.2231 166.275C88.3206 165.782 88.0305 164.937 86.7734 165.394C85.4518 165.887 85.7419 167.12 84.9038 167.965C84.1625 168.705 83.2277 168.035 82.5186 167.578C81.4278 166.929 80.2969 166.364 79.1341 165.887C77.8838 165.34 76.6026 164.881 75.2983 164.514C73.8801 164.092 72.3007 164.021 70.9469 163.422C69.7542 162.894 69.2385 161.908 68.3682 160.957C67.9122 160.485 67.3674 160.127 66.7717 159.908C66.1761 159.689 65.5439 159.615 64.9193 159.69C62.5985 159.866 61.019 162.577 59.7942 164.479C56.47 169.699 52.5121 174.402 48.0291 178.459C45.8372 180.466 43.3875 182.156 41.2601 184.199C40.3576 185.079 39.7129 185.889 38.6814 186.523C37.2954 187.368 36.0383 188.459 34.7168 189.41C29.5272 193.178 25.7237 198.636 27.1742 205.785C27.8189 208.989 29.1082 211.278 31.5257 213.215C32.6216 214.095 33.6208 214.835 35.0069 214.764C36.3284 214.729 37.4888 214.658 36.7152 212.968C37.6822 213.285 38.5203 214.13 39.584 214.553C40.9242 215.052 42.3264 215.325 43.7421 215.363C45.8372 215.398 48.3192 214.201 50.1565 213.672C50.6722 213.532 51.6714 213.285 52.2516 212.757C52.7029 212.334 52.6062 211.841 53.3153 211.63C54.2501 211.384 54.6046 211.665 55.4749 211.067C56.7643 210.186 58.1503 209.658 59.4719 208.848C61.2769 207.757 62.9853 206.489 64.7581 205.362C64.9837 206.066 66.3698 210.292 67.24 208.285C67.9814 206.524 65.5639 204.975 67.0467 203.179C68.4649 201.453 68.755 203.284 70.1088 204.059C72.0106 205.151 71.7205 203.108 71.1725 201.876C70.9469 201.383 70.4956 200.643 70.6245 200.08C70.8824 198.988 71.6882 199.622 72.3329 199.728C72.7958 199.817 73.2716 199.784 73.7203 199.631C74.169 199.477 74.5775 199.209 74.9115 198.847C75.5562 198.214 76.5877 197.685 76.9745 196.876C77.1679 196.453 77.2001 195.925 77.3613 195.467C77.5869 194.904 77.7158 195.044 77.8125 194.34C77.7469 193.969 77.7145 193.591 77.7158 193.213L78.1993 193.108C78.1993 193.072 78.2316 192.368 78.1349 192.474C78.296 192.227 78.6184 192.122 78.8118 191.77C78.9729 191.453 78.8118 190.854 78.9085 190.502C79.0374 189.762 79.4564 189.164 79.7465 188.495C80.4234 191.629 80.23 194.868 80.8747 197.967C81.3904 200.538 82.6153 202.827 84.0013 204.939C84.646 205.925 85.5163 206.595 86.1932 207.545C86.7734 208.32 87.0635 209.024 87.9015 209.482C88.4817 209.799 89.0942 209.94 89.6743 210.222C90.0611 210.398 90.8992 211.172 91.2538 211.172C90.9637 211.172 91.834 211.208 91.6083 211.172C91.6083 211.172 91.5116 210.75 91.6083 210.75C92.8977 212.053 94.2192 212.088 95.702 212.898C96.3789 213.285 96.6367 213.25 97.3459 213.391C98.2806 213.567 99.0542 214.165 99.9567 214.201C101.343 214.306 102.89 214.482 104.308 214.447C104.695 214.447 105.436 214.165 105.726 214.518C105.92 214.764 105.533 216.56 105.533 216.947C105.275 221.208 105.791 225.716 107.467 229.624C108.821 232.864 110.304 236.702 112.721 239.167C115.396 241.914 119.168 243.851 122.746 244.59C126.71 245.4 130.643 244.801 134.64 244.555C138.594 244.35 142.511 243.628 146.308 242.407C149.891 241.161 153.41 239.703 156.848 238.04C159.201 236.914 162.199 235.329 160.974 231.948C160.684 231.139 159.524 228.85 158.492 229.976C157.59 230.962 159.105 232.829 159.782 233.463C154.592 237.407 148.307 238.709 142.279 240.118C138.959 240.893 135.671 240.858 132.287 240.858C129.418 240.858 126.549 240.963 123.713 240.505C121.134 240.118 118.136 239.379 116.202 237.301C114.133 235.104 112.354 232.604 110.916 229.871C109.401 226.913 109.046 223.744 108.918 220.398C108.815 218.639 108.826 216.874 108.95 215.116C109.079 213.849 109.659 213.708 109.949 212.686C110.626 213.743 111.077 213.356 111.915 212.722C112.463 214.377 112.205 216.067 112.109 217.757C112.061 219.419 112.158 221.081 112.399 222.722C112.721 225.504 113.946 228.427 115.493 230.681C116.202 231.702 117.234 232.124 118.201 232.829C119.426 233.709 120.683 234.554 121.94 235.364C124.325 236.878 126.936 238.181 129.611 238.393C130.546 238.463 131.223 238.991 132.351 238.921C133.028 238.886 133.673 238.639 134.35 238.639C135.026 238.674 135.574 238.886 136.284 238.85C139.12 238.639 142.053 237.618 144.858 237.054C147.887 236.456 150.982 235.787 153.883 234.589C155.14 234.061 156.171 233.392 156.881 232.089C157.396 231.174 157.235 229.483 158.202 228.955C157.59 228.075 157.815 227.934 158.331 227.159C158.589 226.807 159.363 225.856 158.396 225.856C158.686 224.448 158.202 223.11 157.976 221.772C157.88 221.173 157.912 220.293 157.59 219.8C157.396 219.518 157.074 219.483 156.913 219.271C156.829 219.279 156.744 219.26 156.67 219.216C156.596 219.172 156.534 219.106 156.494 219.025C156.487 218.976 156.489 218.927 156.5 218.879C156.511 218.831 156.53 218.786 156.557 218.747C156.584 218.708 156.618 218.674 156.657 218.65C156.696 218.625 156.739 218.609 156.784 218.602C156.719 218.145 157.042 218.321 156.719 217.581C156.234 216.594 155.551 215.739 154.721 215.081C154.076 214.518 153.593 213.496 152.851 213.215C151.884 212.827 150.853 212.405 149.821 212.017C147.55 211.134 145.111 210.892 142.73 211.313C141.616 211.503 140.517 211.786 139.442 212.158C138.798 212.37 137.831 212.968 137.283 212.334C137.089 212.123 136.703 210.222 136.703 210.045C136.799 209.236 138.314 208.919 138.894 208.602C139.732 208.179 141.312 207.686 141.86 206.841C142.086 206.489 141.828 204.939 141.86 204.904C142.214 204.658 143.697 208.355 144.116 208.637C144.696 208.989 146.373 208.531 146.953 208.461C148.758 208.25 150.627 208.109 152.4 207.651C155.817 206.735 159.169 205.327 162.457 204.094C168.791 201.749 174.858 198.618 180.54 194.763C183.27 192.944 185.728 190.675 187.824 188.037C188.727 186.84 189.372 185.466 190.306 184.304C191.37 182.966 191.048 181.769 191.531 180.079C192.498 176.698 193.691 173.599 194.207 170.078C194.764 166.414 194.97 162.696 194.819 158.986C194.529 151.661 194.207 144.759 191.241 138.033C188.534 131.871 185.052 125.849 180.894 120.779C179.954 119.574 178.895 118.488 177.735 117.539C176.446 116.553 175.06 115.778 173.9 114.581C172.965 113.63 172.159 112.503 171.16 111.588C169.935 110.461 168.484 109.968 167.066 109.264C165.712 108.595 164.455 107.679 163.069 107.045C162.224 106.643 161.351 106.314 160.458 106.059C159.814 105.848 158.943 105.848 158.331 105.496C157.396 104.897 156.397 103.207 155.785 102.221C154.882 100.812 154.399 99.1573 153.947 97.5375C153.432 95.5303 152.948 93.5231 152.432 91.5512C152.271 90.8821 151.594 88.4876 152.916 89.051C153.303 89.2271 153.657 89.9666 153.947 90.2835C154.52 90.8995 155.171 91.4214 155.881 91.8329C157.009 92.5019 158.17 93.3119 159.234 93.7696C160.168 94.1922 161.135 94.9669 162.006 95.5303C162.135 95.6008 162.167 95.9177 162.36 95.9881C162.779 96.1994 163.037 95.636 163.424 95.7768C163.94 95.9529 164.036 96.4811 164.326 96.9389C164.745 97.5727 164.971 97.6079 165.616 97.9249C166.325 98.277 166.841 98.9813 167.55 99.3334C168.388 99.756 170.257 99.4391 170.386 100.883C171.708 99.932 173.352 101.763 174.158 102.714C174.996 101.341 176.446 102.96 177.703 102.503C177.026 103.559 177.123 103.453 178.219 103.559C179.154 103.665 179.702 104.334 180.604 104.721C181.249 105.003 181.926 105.425 182.57 105.637C183.183 105.813 183.666 105.425 184.182 105.531C184.569 105.601 184.891 105.954 185.246 106.059C185.697 106.165 186.342 106.341 186.825 106.447C187.438 106.623 188.05 106.447 188.662 106.587C189.372 106.728 189.984 107.186 190.725 107.362C191.531 107.538 192.369 107.433 193.175 107.644C193.916 107.855 194.368 108.066 195.109 108.066C196.237 108.066 197.527 108.242 198.623 108.102C199.235 108.031 199.557 107.679 200.234 108.031C200.685 108.242 200.943 108.912 201.556 108.595C200.911 108.313 201.491 107.221 202.2 108.066C202.362 107.609 202.491 107.327 202.942 107.186C202.91 107.644 202.845 108.102 203.393 108.207C203.425 107.89 203.49 107.573 203.522 107.221C204.715 108.207 204.972 108.559 206.101 107.362C206.068 107.75 205.907 108.207 206.294 108.489C206.52 108.066 206.745 107.644 207.003 107.221C207.39 108.595 209.292 108.102 210.194 107.89C210.549 107.785 211.516 107.644 211.741 107.327C211.903 107.116 211.87 106.94 211.935 106.799C211.999 106.693 211.387 106.376 211.903 106.2C212.289 106.059 212.58 106.975 213.031 106.94C213.418 106.904 213.611 106.165 213.901 106.024C213.933 106.024 214.127 106.341 214.256 106.271C214.481 106.165 214.578 105.883 214.836 105.778C215.352 105.566 215.996 105.601 216.576 105.355C217.286 105.038 218.027 104.862 218.768 104.615C219.703 104.263 220.122 103.594 220.863 103.066C221.025 102.925 221.218 102.996 221.411 102.925C221.637 102.82 221.895 102.503 222.185 102.397C223.035 102.042 223.855 101.606 224.635 101.094C225.376 100.566 226.343 100.179 227.02 99.5447C227.568 99.0165 227.858 98.277 228.406 97.7488C229.212 96.9741 231.243 96.0233 230.92 94.5443C232.242 94.7556 232.564 93.8401 233.048 92.7837C233.499 91.7977 234.466 91.516 235.078 90.6004C235.336 90.213 235.787 89.6848 235.916 89.2271C236.013 88.9806 235.787 88.6989 235.852 88.5228C236.142 87.7129 237.173 87.3255 237.689 86.586C238.302 85.6353 238.527 84.438 239.043 83.452C239.14 83.2759 239.398 83.1351 239.494 82.959C239.559 82.8182 239.43 82.5012 239.494 82.3604C239.688 82.0435 239.945 81.9378 240.139 81.6561C240.59 80.987 240.655 80.0011 241.074 79.2264C241.17 79.0503 241.525 78.4869 241.557 78.3812C241.645 78.0363 241.699 77.6822 241.718 77.3248C241.751 77.184 241.976 76.4445 242.008 76.3388C242.168 76.082 242.34 75.8351 242.524 75.5993C243.094 74.5522 243.416 73.3659 243.459 72.1484C243.491 71.6906 243.33 71.1976 243.491 70.7398C243.62 70.3525 244.039 70.106 244.2 69.7186C244.619 68.6622 244.555 67.148 244.652 66.0212C244.78 64.7887 245.135 63.5562 245.232 62.3238C245.296 61.7251 245.038 61.1969 245.038 60.6335C245.071 59.9997 245.361 59.8588 245.49 59.3306C245.619 58.732 245.425 58.0277 245.554 57.3586C245.651 56.76 245.812 56.1966 245.876 55.5627C246.005 53.9429 245.812 52.2526 245.747 50.6328C245.672 49.9995 245.693 49.3567 245.812 48.7313C245.941 48.2383 246.424 47.6748 246.424 47.1466C246.36 45.4916 245.167 46.9354 244.458 46.7945C243.652 46.6536 243.491 44.6817 243.265 43.907C242.75 42.0406 242.202 40.2095 241.686 38.3432C244.2 37.6389 246.779 37.8502 249.325 37.6389C251.821 37.4067 254.292 36.9234 256.707 36.1952C258.77 35.6317 260.994 35.3148 262.863 34.0823C264.314 32.8146 265.603 30.561 264.701 28.589V28.589Z" fill="#222222"/>
<path fill-rule="evenodd" clip-rule="evenodd" d="M22.0169 64.4014C23.0161 63.8379 22.7583 63.0632 23.4996 62.3238C27.5933 58.239 32.4282 54.6824 37.2632 51.7244C42.3561 48.6256 48.0613 47.3227 53.2831 44.576C53.9922 44.2239 54.8948 43.6253 54.6369 42.6041C54.3468 41.4068 53.2831 41.9702 52.5417 42.2519C50.0598 43.2027 47.4167 43.5548 44.8702 44.4C39.4873 46.1606 34.4267 49.2242 29.8818 52.816C27.2002 54.8869 24.6971 57.2207 22.4037 59.7884C21.5656 60.7391 20.4697 61.866 20.2441 63.2041C19.954 64.8592 20.8565 65.0352 22.0169 64.4014Z" fill="#222222"/>
<path fill-rule="evenodd" clip-rule="evenodd" d="M37.5855 171.064C37.5533 169.55 36.0706 170.113 35.297 170.324C32.1704 171.134 29.3661 171.768 26.6263 173.67C21.5012 177.191 17.601 182.543 15.0868 188.459C14.7644 189.234 13.4106 191.734 14.4743 192.474C15.1835 192.967 15.6347 191.523 15.8926 190.995C17.2464 188.283 19.0515 185.924 20.8887 183.565C24.9501 178.353 29.8173 175.043 35.6515 172.648C36.3284 172.367 37.5855 172.12 37.5855 171.064Z" fill="#222222"/>
<path fill-rule="evenodd" clip-rule="evenodd" d="M210.323 134.23C209.227 131.871 207.487 128.913 205.069 127.927C203.715 127.399 202.942 128.279 203.329 129.793C203.651 130.991 204.715 131.554 205.488 132.364C207.519 134.406 208.776 137.435 209.517 140.252C210.291 143.245 210.452 146.449 210.452 149.548C210.452 151.168 210.033 152.577 209.84 154.161C209.743 154.795 209.614 156.168 210.259 156.556C211.709 157.401 212.386 152.929 212.515 152.048C213.025 148.964 213.036 145.805 212.547 142.717C212.128 139.794 211.548 136.871 210.323 134.23Z" fill="#222222"/>
<path fill-rule="evenodd" clip-rule="evenodd" d="M206.197 20.0321C206.778 19.1517 206.359 17.9545 206.52 16.9685C206.713 15.9121 207.261 14.8909 207.712 13.9753C208.72 11.9956 209.828 10.0793 211.032 8.23546C212.257 6.33392 213.772 4.71409 215.061 2.91818C215.513 2.31955 216.286 1.43921 216.093 0.699718C215.771 -0.497549 215.094 0.101085 214.578 0.594077C211.611 3.40552 209.028 6.66653 206.906 10.2779C205.907 11.9681 204.972 13.7992 204.65 15.8064C204.473 16.8463 204.506 17.916 204.747 18.9404C204.94 19.5391 205.488 21.0533 206.197 20.0321Z" fill="#222222"/>
<path fill-rule="evenodd" clip-rule="evenodd" d="M24.0153 166.486C25.4981 166.345 26.9808 166.275 28.4635 166.204C29.5594 166.134 30.7843 166.204 31.8158 165.641C32.815 165.042 32.396 164.197 31.5579 164.056C31.0744 163.986 30.2686 164.338 29.7206 164.373C29.1726 164.408 28.5924 164.373 28.0123 164.373C26.3684 164.373 24.5955 164.373 23.0161 164.972C22.5004 165.183 21.7268 165.465 21.5011 166.134C21.0499 167.507 23.3384 166.556 24.0153 166.486Z" fill="#222222"/>
<path fill-rule="evenodd" clip-rule="evenodd" d="M37.0053 39.7517C39.165 39.47 41.2279 38.7658 43.3553 38.308C45.386 37.8854 45.7083 36.1599 43.323 36.2304C42.5172 36.2304 34.8135 37.8502 37.0053 39.7517Z" fill="#222222"/>
<path fill-rule="evenodd" clip-rule="evenodd" d="M214.739 126.765C213.289 126.378 214.03 128.138 214.481 128.666C215.319 129.652 215.771 130.427 215.996 131.765C216.125 132.54 215.996 134.301 216.609 134.899C217.189 135.498 217.253 135.111 217.35 134.371C217.672 132.329 217.06 127.399 214.739 126.765Z" fill="#222222"/>
<path fill-rule="evenodd" clip-rule="evenodd" d="M198.88 15.9473C199.299 15.4895 198.848 13.4119 198.913 12.8132C198.987 12.1183 199.127 11.4338 199.332 10.7708C199.428 10.4539 199.912 9.25664 199.654 8.9045C199.299 8.41151 198.687 9.25664 198.494 9.57356C197.881 10.6652 197.72 12.4963 197.817 13.7288C197.849 14.1866 198.075 16.8628 198.88 15.9473Z" fill="#222222"/>
<path fill-rule="evenodd" clip-rule="evenodd" d="M113.785 189.797C113.849 188.635 114.881 187.826 114.881 186.593C114.881 185.184 114.01 184.586 112.947 185.501C112.302 186.065 111.786 187.368 110.916 187.544C109.175 187.896 108.466 184.445 106.758 184.868C105.275 185.22 106.049 188.002 106.5 188.952C106.984 189.938 107.854 190.643 107.564 191.875C107.241 193.354 106.081 194.199 106.532 195.854C107.37 198.953 109.175 196.065 110.239 195.08C111.013 194.375 111.464 194.516 112.238 195.185C113.144 196.088 114.178 196.825 115.3 197.368C116.396 197.932 117.459 198.319 117.492 196.453C117.524 194.974 116.492 193.53 115.622 192.544C114.913 191.734 113.72 191.1 113.785 189.797Z" fill="#222222"/>
<path fill-rule="evenodd" clip-rule="evenodd" d="M94.5093 185.149C93.22 183.635 91.6084 187.473 90.5447 187.896C88.8685 188.565 88.4817 184.903 86.9345 185.008C85.7419 185.114 85.8064 186.98 86.0965 187.861C86.3866 188.776 87.2246 189.551 87.3536 190.502C87.5792 191.946 85.0328 194.868 86.8056 196.277C88.3206 197.474 88.8685 193.424 90.7381 195.08C91.6728 195.889 94.2515 198.918 95.5086 197.404C97.0235 195.608 93.4134 192.579 92.7688 191.241C91.9307 189.41 96.4111 187.368 94.5093 185.149Z" fill="#222222"/>
<path fill-rule="evenodd" clip-rule="evenodd" d="M125.679 133.103C125.324 132.927 124.712 133.209 124.325 133.209C123.906 133.174 123.455 132.963 123.036 132.892C122.101 132.716 120.489 132.963 119.845 132.082C119.168 131.167 119.683 129.336 119.393 128.244C119.232 127.645 119.071 126.906 118.33 127.152C117.459 127.469 117.492 129.195 117.395 129.969C117.234 131.096 117.105 131.941 116.073 132.329C115.3 132.61 114.494 132.47 113.881 133.174C113.43 133.667 113.108 134.582 113.462 135.251C114.01 136.237 115.139 135.744 115.944 136.026C117.169 136.519 116.879 138.667 117.137 139.935C117.298 140.745 117.653 142.998 118.716 142.963C120.167 142.928 119.587 139.759 119.522 138.843C119.426 137.892 119.264 137.118 120.199 136.836C121.005 136.59 122.133 137.047 122.971 137.047C124.035 137.047 125.26 136.766 125.904 135.709C126.227 135.04 126.485 133.456 125.679 133.103Z" fill="#222222"/>
<path fill-rule="evenodd" clip-rule="evenodd" d="M178.541 171.944C180.83 172.155 179.444 175.254 180.959 176.451C182.409 177.614 182.603 174.409 182.603 173.494C182.603 171.275 185.085 172.085 186.6 171.733C187.889 171.416 189.307 169.972 187.76 168.704C186.664 167.789 184.795 168.211 183.505 168C181.765 167.683 182.28 166.416 182.248 164.937C182.248 164.408 182.055 162.472 181.442 162.331C180.282 162.049 180.217 165.641 180.121 166.31C179.798 169.197 177.993 167.437 176.543 168.881C174.641 170.747 177.187 171.838 178.541 171.944Z" fill="#222222"/>
<path fill-rule="evenodd" clip-rule="evenodd" d="M69.7865 118.243C66.2086 121.448 62.1472 120.99 58.8917 117.539C57.5057 116.095 56.6676 114.616 56.7965 112.468C56.8932 110.567 57.409 108.419 58.8272 107.151C60.0198 106.059 62.2439 105.672 63.7267 105.531C65.8218 105.32 67.6914 106.552 69.1741 108.137C70.4312 109.51 71.9139 111.236 72.1073 113.243C72.3007 115.356 71.2048 116.975 69.7865 118.243ZM70.3345 105.531C67.1434 102.151 61.4381 102.503 58.1503 105.566C54.4435 109.017 53.7988 115.497 57.3767 119.3C61.148 123.279 66.1119 122.856 70.0766 119.546C71.0957 118.732 71.9426 117.688 72.5599 116.485C73.1773 115.282 73.5506 113.948 73.6545 112.574C73.9124 109.792 72.0751 107.362 70.3345 105.531Z" fill="#222222"/>
<path fill-rule="evenodd" clip-rule="evenodd" d="M132.287 47.4988C131.932 48.7665 132.19 50.1398 132.254 51.4427C131.223 50.7384 130.611 49.5059 129.515 48.9425C128.999 50.5271 131.61 55.0345 133.254 53.5555C134.736 52.1822 133.608 48.3791 132.287 47.4988Z" fill="#222222"/>
<path fill-rule="evenodd" clip-rule="evenodd" d="M137.637 55.281C136.832 55.5979 136.09 55.5275 135.284 55.7036C134.769 55.8092 134.704 55.4923 134.607 56.1613C134.446 57.5699 136.541 58.0981 137.476 58.0981C138.604 58.0629 139.861 57.253 139.765 55.8796C139.636 54.4007 138.508 54.9289 137.637 55.281Z" fill="#222222"/>
<path fill-rule="evenodd" clip-rule="evenodd" d="M138.282 49.3651C137.927 49.0129 137.057 47.6396 136.445 47.8509C135.961 48.027 136.316 48.6608 136.445 48.9777C136.96 50.1398 137.992 51.1258 138.798 52.0765C138.185 52.323 137.025 52.4639 137.347 53.4851C137.637 54.4359 138.927 54.295 139.539 53.8725C141.634 52.5343 139.346 50.4215 138.282 49.3651Z" fill="#222222"/>
<path fill-rule="evenodd" clip-rule="evenodd" d="M140.409 47.1466C140.538 47.7805 140.635 48.4143 140.313 49.013L138.54 45.562C137.122 46.1959 139.604 51.161 141.054 50.5976C142.053 50.2102 141.57 47.8861 141.409 47.1466C141.312 46.7593 141.119 45.4916 140.635 45.3859C139.668 45.1394 140.313 46.6888 140.409 47.1466Z" fill="#222222"/>
<path fill-rule="evenodd" clip-rule="evenodd" d="M67.917 116.588C67.1111 115.919 65.7573 117.468 64.887 117.468C63.1464 117.468 64.0812 115.25 63.0175 114.511C62.4373 114.123 60.0843 114.511 60.4389 112.961C60.6645 112.01 61.5348 112.715 62.0183 112.116C62.6307 111.412 61.7604 110.813 61.2125 110.531C61.4381 110.179 62.8241 110.038 63.1464 110.285C63.7266 110.707 63.6944 111.94 64.2424 112.574C64.9515 111.588 64.5647 110.355 65.3061 109.475C65.5962 109.123 66.4342 108.876 66.1119 108.278C65.9185 107.926 65.0804 108.031 64.7903 107.75C64.5325 107.503 64.5647 106.693 64.1457 106.658C63.4688 106.552 63.501 107.644 63.3076 107.961C62.6952 108.912 60.0843 108.595 61.1802 110.531C60.4389 110.144 58.4726 109.827 58.8594 111.2C58.9561 111.553 59.3429 111.764 59.4396 112.186C59.5363 112.539 59.3429 113.032 59.3107 113.384C59.2785 114.053 59.2462 114.827 59.6653 115.356C60.2777 116.095 61.1158 115.567 61.7604 115.884C62.6629 116.306 62.3406 117.222 62.8241 118.032C63.4365 119.053 64.4035 118.736 65.3061 118.419C66.3698 118.032 66.5309 117.997 67.3045 118.983C67.6913 118.454 68.6583 117.187 67.917 116.588Z" fill="#222222"/>
<path fill-rule="evenodd" clip-rule="evenodd" d="M69.3352 112.574C68.4971 112.398 68.8195 109.651 67.788 110.848C67.4012 111.306 67.788 112.186 67.369 112.644C67.0789 112.961 66.7243 112.785 66.4342 112.996C66.1763 113.172 66.1119 113.56 65.9507 113.841C66.4283 114.109 66.9801 114.172 67.4979 114.018C67.4979 114.511 67.2078 115.919 67.9492 115.813C68.6583 115.708 68.4649 114.299 68.8195 113.841C69.174 113.384 70.6245 113.595 70.7857 112.961C70.9146 112.186 69.722 112.644 69.3352 112.574Z" fill="#222222"/>
</g>
<defs>
<clipPath id="clip0_2_10">
<rect width="265" height="245" fill="white"/>
</clipPath>
</defs>
</svg>
