<svg width="41" height="22" viewBox="0 0 41 22" fill="none" xmlns="http://www.w3.org/2000/svg">
<path d="M3.08503 7.96429C2.51302 7.36504 1.56353 7.34296 0.964286 7.91497C0.365039 8.48698 0.342958 9.43647 0.914967 10.0357L3.08503 7.96429ZM12.5 20L11.415 21.0357C11.6938 21.3279 12.0787 21.4952 12.4826 21.4999C12.8864 21.5046 13.2751 21.3462 13.5607 21.0607L12.5 20ZM32.0607 2.56066C32.6464 1.97487 32.6464 1.02513 32.0607 0.43934C31.4749 -0.146447 30.5251 -0.146447 29.9393 0.43934L32.0607 2.56066ZM12.0607 8.43934C11.4749 7.85355 10.5251 7.85355 9.93934 8.43934C9.35355 9.02513 9.35355 9.97487 9.93934 10.5607L12.0607 8.43934ZM40.5607 2.56066C41.1464 1.97487 41.1464 1.02513 40.5607 0.43934C39.9749 -0.146447 39.0251 -0.146447 38.4393 0.43934L40.5607 2.56066ZM21 20L19.9393 21.0607C20.5251 21.6464 21.4749 21.6464 22.0607 21.0607L21 20ZM21.0607 17.9393L20 16.8787L17.8787 19L18.9393 20.0607L21.0607 17.9393ZM0.914967 10.0357L11.415 21.0357L13.585 18.9643L3.08503 7.96429L0.914967 10.0357ZM13.5607 21.0607L18.0607 16.5607L15.9393 14.4393L11.4393 18.9393L13.5607 21.0607ZM18.0607 16.5607L32.0607 2.56066L29.9393 0.43934L15.9393 14.4393L18.0607 16.5607ZM18.0607 14.4393L12.0607 8.43934L9.93934 10.5607L15.9393 16.5607L18.0607 14.4393ZM38.4393 0.43934L19.9393 18.9393L22.0607 21.0607L40.5607 2.56066L38.4393 0.43934ZM22.0607 18.9393L21.0607 17.9393L18.9393 20.0607L19.9393 21.0607L22.0607 18.9393Z" fill="white"/>
</svg>
