<svg width="216" height="245" viewBox="0 0 216 245" fill="none" xmlns="http://www.w3.org/2000/svg">
<path fill-rule="evenodd" clip-rule="evenodd" d="M121.929 35.8106C123.32 35.6619 123.519 37.5485 123.708 38.4086C124.244 38.0703 124.721 38.3937 124.843 37.6036C126.539 39.3805 127.897 41.4199 129.403 43.3502C130.847 45.2022 133.105 46.6752 134.354 48.622C135.414 50.2748 133.665 52.7844 133.448 54.5469C133.205 56.5332 133.723 58.8065 135.08 60.3208C135.714 61.029 136.49 61.5209 137.428 61.7112C138.361 61.9004 139.248 61.3533 140.069 61.4697C140.751 61.5663 140.781 62.0168 141.018 62.686C141.344 63.6042 141.759 64.4712 142.529 65.1161C143.389 65.8365 144.312 66.0446 144.968 67.0126C145.54 67.8572 145.865 68.6752 146.753 69.2616C147.937 70.0441 149.838 70.2805 149.709 72.1076C149.913 71.9459 150.116 71.7841 150.32 71.6222C150.792 73.1396 151.442 74.6088 152.136 76.0356C152.461 76.7042 152.628 77.0594 152.611 77.8033C152.6 78.2934 152.331 78.6641 152.622 79.1384C153.086 79.8977 154.329 79.7947 154.896 80.4086C155.478 81.038 154.874 81.892 155.546 82.4406C155.263 82.5276 154.479 83.1613 154.774 83.5463C155.198 84.0998 155.23 83.3416 155.527 83.4329C156.211 83.642 156.066 84.4945 156.599 84.7262C156.709 84.7739 156.7 84.263 156.695 84.1315L156.694 84.1267L157.105 84.9294C160.568 91.6309 164.627 98.0151 167.889 104.814L168.277 105.631C174.42 118.764 181.724 131.552 189.801 143.597C191.706 146.439 193.797 149.261 195.559 152.184C197.329 155.121 199.535 157.725 201.493 160.533C203.507 163.423 205.35 166.43 207.381 169.306C209 171.6 210.979 174.042 210.953 177C210.94 178.314 210.749 179.766 209.482 180.473C209.452 179.931 208.632 180.53 208.436 180.663C207.59 181.239 208.05 181.175 207.138 180.974C205.657 180.647 204.393 181.089 203.023 180.248C200.118 178.463 197.255 176.628 194.297 174.924C187.905 171.243 181.577 167.474 175.648 163.075C165.282 155.384 154.02 148.493 144.495 139.744C134.976 131.003 124.986 122.33 113.691 115.936C112.934 115.508 110.764 114.865 110.964 113.842C111.139 112.947 113.091 111.691 113.775 111.07C116.151 108.918 118.625 106.881 120.917 104.636C125.147 100.491 129.346 95.9174 132.74 91.0548C134.39 88.6891 135.233 86.0581 136.196 83.3686C137.047 80.9944 137.833 78.0716 136.453 75.7228C135.814 74.6348 134.931 74.1934 133.697 74.276C132.676 74.3443 132.721 74.5535 132.316 73.4699C131.88 72.3036 131.526 70.9502 130.357 70.275C129.145 69.5753 128.32 70.3214 127.339 71.0217C126.211 69.3921 124.827 66.5725 122.551 66.4165C120.176 66.2538 118.827 69.1884 118.006 70.9536C115.581 76.1729 112.425 81.0485 109.03 85.6964C105.351 90.7346 101.59 95.8596 97.5361 100.604C96.6777 101.608 95.7034 103.074 94.4941 103.683C93.2536 104.308 92.2243 103.721 91.1757 103.002C88.7047 101.307 86.3016 99.5661 83.7291 98.0143C80.8796 96.2954 77.9501 94.7209 75.0439 93.1015C73.7619 92.3871 72.5453 91.5268 71.2241 90.8852C69.9932 90.2873 68.6526 89.9912 67.3925 89.468C72.0198 88.0884 76.8937 89.8957 81.2734 91.3291C83.5466 92.073 85.9236 92.8476 88.3505 92.6476C90.4496 92.4748 92.3543 91.3508 94.0146 90.1234C97.0159 87.9046 97.2515 84.5717 96.2729 81.2032C95.1467 77.326 93.4242 73.5972 92.1228 69.773C91.5309 68.0336 91.1233 66.1861 92.4705 64.6831C93.6762 63.3382 95.2365 63.1727 96.8822 63.7021C100.872 64.9861 104.412 66.1916 108.689 66.0697C112.033 65.9746 116.287 65.0255 118.54 62.3079C119.774 60.8183 119.822 58.7701 119.826 56.9224C119.833 54.7327 119.694 52.5305 119.388 50.3627C118.841 46.4947 117.423 42.6216 119.202 38.8659C119.619 37.9852 120.78 35.9336 121.929 35.8106ZM156.694 84.114L156.694 84.1267L156.693 84.1236C156.692 84.0956 156.693 84.0953 156.694 84.114ZM18.2908 65.958C19.3363 64.5116 22.1973 61.1437 24.3817 61.8806C24.7631 62.0093 25.0388 62.3897 25.2902 62.6728C25.4684 62.9044 25.6451 63.1368 25.8205 63.3705C25.9295 63.6776 26.125 63.7682 26.4075 63.6423C27.1735 64.7033 28.2545 65.5044 28.695 66.8075C29.131 68.0985 30.3017 69.3505 30.9921 70.5347C31.5262 71.4506 32.7304 73.8957 32.6383 75.0411V77.9643C32.5295 79.1006 30.4056 81.1331 29.6587 81.9017C27.804 83.8108 25.7895 84.0551 23.041 83.8115C20.7126 83.605 17.697 82.8289 16.1208 80.9782C14.6081 79.2025 14.6295 76.4505 14.8534 74.2636C15.166 71.2098 16.5056 68.4278 18.2908 65.958ZM25.4548 66.4427C25.0286 65.6509 24.0959 65.4552 23.2763 65.5491C22.4572 65.6429 21.5171 65.7117 20.7659 66.0771C20.0723 66.4148 19.7213 67.0061 18.8567 66.8075C19.1991 67.3977 18.5855 67.7386 18.4972 68.2703C18.3836 68.9534 18.6038 69.5658 19.0551 70.0842C19.9893 71.1578 21.3848 71.1369 22.6832 71.2416C23.7809 71.3301 25.1312 71.5118 25.7761 72.5405C26.1922 73.2037 25.8148 73.6816 26.0097 74.3478C26.1531 74.8386 26.7528 75.1206 27.0151 75.542C27.8937 74.2488 27.8629 71.4785 27.3271 70.0956C27.0739 69.4425 26.5952 68.592 26.2159 68.0183C26.0919 67.8304 25.7988 67.6064 25.7209 67.4513C25.5861 67.1834 25.6022 66.716 25.4548 66.4427Z" fill="#FCE96D"/>
<path fill-rule="evenodd" clip-rule="evenodd" d="M127.873 238.932C129.463 238.31 131.422 238.601 133.089 238.631C135.181 238.668 137.279 238.827 139.365 238.99C143.371 239.304 147.357 239.171 151.366 239.546C153.357 239.732 155.349 239.904 157.341 240.074C159.085 240.222 161.11 240.684 162.851 240.352C163.57 240.214 165.51 239.538 165.151 238.485C164.873 237.673 162.689 237.172 161.978 236.941C160.304 236.397 158.575 236.007 156.883 235.522C156.014 235.273 155.148 235.004 154.233 235.091C153.457 235.164 152.639 235.744 151.852 235.677C150.688 235.579 150.088 234.117 149.235 233.473C147.876 232.447 146.868 232.995 145.826 234.126C145.055 234.962 144.322 236.228 143.058 236.303C141.449 236.398 141.137 235.019 141.846 233.85C142.5 232.773 144.28 231.669 144.375 230.326C144.435 229.477 143.078 227.207 142.297 226.884C140.983 226.341 139.127 227.779 137.939 228.22C135.865 228.99 133.748 229.672 131.648 230.368C130.212 230.843 128.08 230.886 127.809 232.569C127.469 234.676 127.883 236.816 127.873 238.932ZM45.6717 206.537C46.0893 205.612 46.528 205.085 45.693 204.227C45.2263 203.747 44.5678 203.511 44.1083 203.012C43.4181 202.264 42.3362 200.217 43.8161 199.702C45.2305 199.209 46.4222 201.178 47.5606 201.611C49.0052 202.159 49.9004 201.239 50.107 199.859C50.3725 198.085 50.0806 196.231 50.2922 194.436C50.4994 192.675 51.1144 191.213 51.5863 189.528C51.9061 188.385 52.2975 187.234 50.8463 186.981C49.5154 186.748 47.9715 187.301 46.6219 187.375C44.5169 187.491 42.3869 187.597 40.2994 187.913C37.9687 188.265 38.0111 190.648 37.4259 192.597C36.0072 197.32 34.1048 201.955 33.2189 206.824C32.8369 208.924 33.8495 210.362 35.0279 212.013C36.5034 214.08 38.0383 216.142 39.7093 218.057C40.8251 219.336 42.0823 220.527 43.7073 221.115C45.548 221.781 46.2514 221.041 45.8268 219.227C45.2661 216.832 44.4201 214.519 44.5197 212.024C44.5561 211.116 44.8204 210.14 44.1654 209.38C43.7112 208.853 42.9328 208.675 42.3402 208.354C41.363 207.825 39.849 206.122 41.7529 205.755C43.0459 205.506 44.4201 206.376 45.6717 206.537ZM89.6391 112.723C90.8009 114.02 92.0637 115.261 93.1653 116.609C93.7969 117.382 94.2443 118.311 94.9221 119.043C96.4065 120.647 97.8854 118.87 99.1999 117.83C104.37 113.743 109.235 109.314 114.16 104.94C116.507 102.855 119.004 100.933 121.313 98.8094C123.652 96.6581 125.6 94.1396 127.792 91.8471C128.844 90.7465 130.104 89.6546 130.754 88.2486C131.309 87.0495 131.431 85.745 132.063 84.5593C133.156 82.5061 135.162 80.1224 134.702 77.639C133.348 79.0588 131.092 84.1466 128.729 81.7606C127.042 80.0575 128.765 77.5401 128.69 75.5545C127.089 76.2338 127.505 78.9894 125.798 79.477C124.874 79.7407 124.084 78.9048 123.654 78.1718C122.909 76.9047 123.182 75.5785 123.521 74.2342C123.751 73.3183 125.222 70.2969 123.767 69.9242C122.507 69.6012 121.45 71.9194 121.033 72.7408C120.267 74.2471 119.674 75.8052 118.833 77.2787C117.384 79.8198 115.714 82.2473 114.122 84.7007C110.843 89.7537 107.104 94.4964 103.258 99.1277C99.1503 104.075 94.7036 108.739 89.6391 112.723ZM126.061 128.794C125.895 133.245 122.07 136.62 118.761 139.095C114.533 142.258 110.631 145.853 105.588 147.653C103.646 148.346 101.222 148.146 100.444 150.332C100.14 151.186 100.416 151.5 100.745 152.36C101.26 153.705 101.57 155.165 101.815 156.581C102.647 161.4 101.838 166.306 98.9429 170.318C97.4037 172.451 95.437 174.264 93.4036 175.917C91.3753 177.566 89.4566 179.489 87.2205 180.853C82.451 183.763 77.1527 185.433 71.6529 186.237C68.7927 186.655 65.9207 187.028 63.0319 187.175C61.5338 187.252 60.0332 187.266 58.5343 187.2C57.8645 187.171 55.3742 186.605 54.8903 186.989C54.5177 187.284 54.3518 189.073 54.2773 189.566C54.1191 190.609 53.9943 191.638 53.7788 192.673C53.3463 194.749 52.763 197.097 53.401 199.192C53.5856 199.797 53.7349 200.291 54.296 200.494C54.6514 200.623 55.2815 200.396 55.641 200.359C56.4542 200.276 57.2219 200.243 58.0398 200.33C60.7238 200.614 63.3594 201.3 66.0721 201.113C71.855 200.715 77.6439 200.308 83.3741 199.403C86.1613 198.963 88.8357 198.13 91.5767 197.486C94.1891 196.873 96.8003 196.254 99.2387 195.102C104.016 192.846 108.431 189.86 112.375 186.363C116.586 182.63 119.373 178.204 122.007 173.266C124.321 168.927 126.272 164.536 126.17 159.535C126.106 156.37 125.652 152.448 127.482 149.657C128.318 148.382 130.005 147.2 131.575 147.874C134.427 149.098 131.733 151.522 130.646 152.849C129.079 154.762 129.29 157.674 129.127 160.013C128.935 162.773 128.315 165.194 127.71 167.863C127.118 170.476 128.312 173.575 128.43 176.24C128.558 179.13 128.474 182.023 128.442 184.914C128.378 190.664 128.645 196.399 128.625 202.148C128.614 205.13 128.691 208.127 128.502 211.105C128.33 213.82 127.774 216.417 127.287 219.083C126.81 221.7 126.113 224.833 126.274 227.493C132.808 225.006 139.167 222.069 145.801 219.847C143.732 218.043 143.64 215.493 143.473 212.949C143.253 209.594 142.701 206.267 142.46 202.912C141.984 196.285 142.117 189.314 142.681 182.695C143.287 175.589 144.36 168.506 144.581 161.37C144.687 157.932 144.421 154.485 143.861 151.093C143.389 148.235 142.98 144.639 141.489 142.107C140.065 139.687 137.447 138.15 135.263 136.502C132.068 134.092 129.109 131.381 126.061 128.794ZM126.456 35.8455C127.274 36.9514 128.199 37.9723 129.177 38.9385C130.186 39.9356 130.615 39.7153 131.823 39.1967C134.224 38.165 134.178 36.9716 132.838 34.9029C129.729 30.1046 128.55 24.3906 125.26 19.6904C122.019 15.0595 117.305 11.3179 112.356 8.64761C107.045 5.78208 101.29 4.87028 95.3032 4.95576C92.2441 4.99957 89.1651 5.21072 86.1251 5.55349C83.1677 5.8867 80.5372 6.85719 77.6744 7.58994C76.2334 7.95866 74.747 8.26465 73.3461 8.77137C72.1167 9.21579 71.0116 9.90219 69.7694 10.3175C67.0506 11.2259 64.3144 12.2412 61.8615 13.7269C59.4629 15.1799 57.3022 16.7294 55.1239 18.513C52.868 20.3602 50.9089 22.507 48.4694 24.1288C46.2484 25.6058 44.4822 27.5951 42.4686 29.3258C40.3645 31.1338 38.4242 33.3495 36.8458 35.6343C35.3026 37.8685 34.7151 40.7594 33.7828 43.2789C32.6977 46.2115 31.6212 49.3464 31.2124 52.4556C30.4504 58.2494 32.1604 65.0211 34.3346 70.3828C36.4849 75.6859 39.9699 80.1105 44.1283 83.9931C46.1556 85.8864 48.3676 87.6049 50.8459 88.871C52.966 89.9542 55.7304 91.9018 58.0381 90.5409C58.9725 89.9899 59.7308 89.3492 60.8111 89.1011C61.9916 88.8302 63.1483 88.941 64.1013 88.0753C64.9113 87.3398 65.2987 86.4518 66.3623 86.0076C67.6234 85.4809 69.1148 85.385 70.4651 85.3892C73.4977 85.3992 76.5317 86.1584 79.4256 87C82.0777 87.7712 84.2972 88.9342 87.1147 88.2295C89.2083 87.7057 92.5665 86.3134 93.0177 83.9131C93.4212 81.768 91.8646 78.9947 91.0808 77.0748C89.9973 74.4221 89.0158 71.8122 88.3353 69.0232C87.7957 66.8133 86.9486 63.2777 88.4713 61.2578C89.9675 59.2731 93.4268 59.2971 95.576 59.7962C96.9844 60.1232 98.2794 60.7822 99.6886 61.1141C101.124 61.4526 102.61 61.6225 104.074 61.7884C109.149 62.3625 116.369 61.0648 116.099 54.5795C115.859 48.7995 112.674 43.0055 114.539 37.2185C115.299 34.8597 116.852 32.1317 119.438 31.5091C121.488 31.0152 124.26 31.5329 126.07 32.6057C127.521 33.4667 128.96 35.2699 126.456 35.8455ZM24.5412 61.6623C19.4254 62.6604 16.0422 68.0527 15.1046 72.8346C14.6797 75.0014 14.5296 77.5818 15.3514 79.6784C16.2985 82.0955 18.9755 83.104 21.3377 83.6109C24.038 84.1906 26.4309 83.9641 28.5716 82.0921C29.5126 81.2687 30.3099 80.3097 30.9862 79.262C31.6776 78.1905 32.6395 77.4097 31.944 76.2121C30.2205 73.245 28.7497 70.3299 27.6144 67.0655C27.1078 65.6087 26.6577 64.1855 26.3214 62.6853C26.0546 61.4939 25.9254 60.7669 24.5412 61.6623ZM69.3457 94.0313C68.3557 94.9846 67.2184 95.7441 65.9407 96.2564C64.5391 96.8184 64.1138 96.5486 64.1833 98.1697C64.2603 99.9602 64.2731 101.393 63.4571 103.059C63.0751 103.838 61.6641 104.891 61.9307 105.768C62.3132 107.027 66.2318 108.3 67.3749 108.74C70.1099 109.794 73.3011 109.815 75.8827 108.327C78.8814 106.598 79.1467 103.463 78.017 100.429C77.8965 100.106 77.4582 99.5587 77.566 99.2055C77.7638 98.5576 78.5788 98.6512 79.0462 98.8985C80.0613 99.4356 80.4855 101.069 80.7039 102.088C81.2876 104.811 80.2155 107.76 78.1774 109.636C77.1418 110.59 75.8465 111.226 74.5254 111.686C73.7754 111.946 72.9887 112.152 72.1966 112.232C71.5567 112.296 70.7488 112.095 70.1378 112.277C69.061 112.598 69.0128 113.926 68.7435 114.897C68.2626 116.632 68.0618 118.511 67.9988 120.306C67.8966 123.21 68.2424 126.91 69.9128 129.371C73.8101 135.115 81.3475 137.109 87.2322 140.065C90.3606 141.636 93.2611 143.61 96.0464 145.721C96.3215 145.929 96.7332 146.338 97.0634 146.5C98.1799 147.049 97.2051 146.85 97.9197 146.487C98.47 146.207 98.941 145.6 99.5095 145.284C100.819 144.555 102.29 144.162 103.622 143.473C106.719 141.871 109.459 139.884 112.208 137.763C115.024 135.589 117.877 133.604 120.446 131.13C121.529 130.087 122.749 129.227 123.848 128.229C124.955 127.223 123.538 126.805 122.601 126.065C119.41 123.545 116.26 120.946 112.852 118.718C111.716 117.975 110.713 116.973 109.528 116.316C108.289 115.631 107.554 116.245 106.579 117.117C105.513 118.07 104.497 119.005 103.31 119.82C101.743 120.897 99.9218 121.416 98.3464 122.441C99.3577 123.5 101.824 123.854 102.182 125.458C102.544 127.083 100.124 128.351 98.9931 128.979C96.9957 130.087 94.7926 130.76 92.5669 131.241C90.7149 131.641 87.9694 131.039 86.4852 132.437C86.0621 131.542 85.6654 131.074 86.3619 130.218C87.0574 129.363 88.2976 129.216 89.2792 128.887C91.9306 127.999 94.542 126.815 97.1073 125.706C96.7668 124.909 95.9159 124.364 95.267 123.845C94.3409 123.104 93.5626 122.283 92.8088 121.361C91.3702 119.604 90.0803 117.729 88.7105 115.92C88.1163 115.135 87.5744 114.352 86.4894 114.786C85.5318 115.17 84.5968 116.165 83.6764 116.68C81.5949 117.845 79.7738 118.964 77.4825 119.705C76.5592 120.004 72.7788 120.854 73.7843 118.543C74.0824 117.858 75.0784 117.576 75.6921 117.277C76.8258 116.723 77.9559 116.158 79.0483 115.526C81.2923 114.227 83.2712 112.549 85.3706 111.038C87.6866 109.372 90.042 107.754 92.2164 105.902C90.0529 104.469 87.6528 103.42 85.4154 102.109C83.1541 100.784 80.8758 99.5861 78.5368 98.4092C76.6744 97.4721 74.7815 96.4729 73.0833 95.2617C72.4083 94.78 70.0859 92.7785 69.3457 94.0313ZM137.375 47.4195C137.09 47.4911 136.808 47.5724 136.529 47.6632C138.426 50.5629 136.332 54.1529 136.925 57.2908C138.676 56.2553 138.906 52.2275 141.564 52.9721C144.428 53.7742 143.003 57.2987 143.87 59.3147C145.223 58.1318 146.803 59.2373 147.361 60.6405C147.966 62.1611 147.128 63.5648 147.41 65.0696C147.701 66.6268 148.571 65.6048 149.053 64.6867C149.668 63.5161 150.205 61.9336 149.979 60.5948C149.703 58.9662 148.61 57.4522 147.932 55.9731C147.259 54.5033 146.622 53.0036 145.648 51.6997C143.803 49.2305 140.599 47.0123 137.375 47.4195ZM155.717 82.1943C154.479 79.1036 152.646 76.2736 151.475 73.1584C151.133 72.2475 150.942 70.7954 150.036 70.2342C149.441 69.8655 148.649 70.0868 147.993 69.8885C147.339 69.6909 146.65 69.2197 146.18 68.7338C145.322 67.8448 145.044 66.6244 144.032 65.8502C142.725 64.8508 141.716 64.4676 141.094 62.798C140.607 61.4866 140.606 61.2942 139.139 61.5868C137.538 61.9064 136.237 61.5151 135.133 60.2644C133.262 58.1469 133.056 55.1636 133.974 52.6074C134.403 51.4122 135.15 50.0215 134.529 48.7699C133.953 47.6072 132.553 46.7726 131.666 45.8459C129.424 43.5037 127.67 40.7626 125.568 38.3051C125.064 37.7171 124.55 37.1305 124.162 36.4564C123.916 36.0284 123.771 35.292 123.2 35.1708C122.217 34.9622 120.845 36.6614 120.351 37.2804C116.732 41.8096 119.321 47.9785 119.762 53.0846C119.986 55.6848 120.49 58.8023 119.337 61.2506C118.251 63.5578 115.5 64.7094 113.183 65.3518C110.056 66.2183 106.699 66.18 103.517 65.654C101.851 65.3786 100.252 64.908 98.6748 64.312C97.0611 63.7021 95.3825 62.653 93.7379 63.7598C91.615 65.1887 92.2709 68.0551 92.737 70.1443C93.4987 73.5571 94.8286 76.7406 96.0051 80.019C96.9932 82.7727 97.7932 86.2275 95.7159 88.6915C93.6412 91.1524 90.2002 92.6923 86.9977 92.5648C80.3583 92.3 74.2975 87.3496 67.5126 89.3745C68.7873 89.9015 70.1351 90.2113 71.3806 90.8145C72.8842 91.5426 74.2762 92.5103 75.7359 93.3203C78.5379 94.8747 81.3498 96.4067 84.0885 98.0721C86.5629 99.5768 88.9023 101.225 91.2639 102.892C94.2068 104.97 95.7566 102.669 97.6446 100.425C101.766 95.5258 105.689 90.338 109.434 85.1464C112.689 80.6329 115.711 75.9206 118.065 70.8785C118.908 69.0743 120.326 66.0137 122.791 66.3697C124.979 66.6855 126.255 69.326 127.387 70.9419C128.176 70.3763 128.853 69.6199 129.919 69.9312C130.802 70.1891 131.414 71.096 131.805 71.8696C132.074 72.4012 132.257 74.1933 132.707 74.463C133.027 74.6548 134.25 74.2425 134.795 74.3683C136.66 74.7996 137.257 77.1973 137.238 78.8616C137.211 81.1556 136.253 83.451 135.467 85.5753C133.707 90.3372 130.69 94.0588 127.365 97.8216C123.99 101.64 120.458 105.101 116.651 108.49C115.712 109.326 114.782 110.172 113.866 111.034C113.115 111.741 111.926 112.476 111.338 113.306C110.25 114.843 113.16 115.54 114.243 116.102C118.902 118.522 123.195 121.708 127.298 124.957C131.529 128.308 135.784 131.672 139.85 135.222C143.827 138.695 147.584 142.397 151.772 145.626C156.075 148.944 160.584 152.008 165.006 155.165C169.432 158.326 173.739 161.651 178.16 164.815C182.48 167.908 187.118 170.559 191.663 173.305C194.04 174.741 196.429 176.157 198.817 177.575C200.749 178.721 202.845 180.504 205.134 180.649C207.197 180.779 209.153 181.538 210.387 179.295C211.322 177.593 210.935 175.251 210.115 173.596C209.115 171.578 207.55 169.721 206.293 167.853C204.848 165.705 203.506 163.495 202.079 161.335C200.711 159.265 199.191 157.354 197.665 155.403C196.118 153.425 194.944 151.195 193.565 149.1C190.617 144.623 187.587 140.226 184.792 135.648C178.383 125.149 172.644 114.31 167.159 103.309C166.676 102.339 155.401 82.3666 155.717 82.1943ZM146.694 146.744C150.138 158.649 148.151 170.755 147.445 182.867C147.088 188.99 147.034 195.152 146.876 201.284C146.799 204.265 146.804 207.248 146.928 210.227C146.99 211.726 147.1 213.22 147.206 214.716C147.301 216.039 146.946 217.502 147.113 218.778C147.327 220.413 150.573 220.734 149.575 222.832C148.906 224.24 146.563 224.455 145.308 225.048C145.866 225.695 146.739 226.662 147.67 226.722C148.508 226.777 149.156 226.05 149.907 225.775C150.575 225.531 151.492 225.294 151.914 226.073C152.355 226.889 151.431 227.795 151.066 228.427C152.308 228.667 153.167 227.925 154.288 227.993C155.467 228.065 155.52 229.225 156.295 229.897C157.181 230.664 158.728 230.829 159.821 231.152C161.092 231.528 162.369 231.994 163.526 232.646C165.596 233.812 167.373 236.014 168.137 238.268C168.93 240.605 167.692 242.627 165.849 244.06C165.162 244.594 164.178 245.215 163.267 244.927C162.226 244.598 162.064 243.751 160.795 243.814C159.656 243.87 158.574 244.325 157.429 244.383C155.746 244.469 154.064 244.163 152.379 244.227C145.578 244.488 138.777 244.546 131.989 243.893C130.232 243.723 128.51 243.585 126.779 243.53C125.432 243.487 125.32 242.482 125.091 241.222C124.54 238.177 125.759 235.18 125.156 232.221C125.196 232.416 124.242 231.908 124.128 231.812C123.428 231.223 123.194 230.386 122.986 229.516C122.431 227.201 122.436 224.841 122.608 222.48C122.998 217.119 123.995 211.809 123.914 206.42C123.872 203.704 123.955 200.994 123.955 198.279C123.956 195.785 124.182 193.324 124.203 190.847C124.249 185.417 124.82 180.048 124.98 174.624C123.85 175.723 123.25 177.256 122.532 178.629C121.649 180.316 120.664 181.985 119.586 183.555C117.359 186.797 114.371 189.435 111.276 191.827C105.369 196.391 98.9523 199.926 91.7155 201.862C83.8815 203.957 75.9589 205.372 67.8825 206.167C66.0139 206.351 64.1245 206.45 62.2516 206.268C61.0253 206.149 59.0319 205.158 57.8667 205.661C56.5424 206.233 56.276 207.607 54.5394 207.221C53.8769 207.074 53.397 206.631 52.8169 206.333C51.9634 205.894 51.9296 206.197 51.1148 206.253C50.2064 206.315 49.6619 205.862 48.8702 206.593C48.1979 207.214 48.2631 207.649 48.8772 208.231C49.7403 209.048 51.1219 209.185 51.9858 210.038C52.8263 210.868 52.6757 211.888 51.3774 211.9C50.0708 211.913 48.9098 210.983 47.6332 210.861C47.9053 214.638 49.0416 218.858 47.7816 222.563C47.1971 224.282 45.9426 225.389 44.0721 225.378C40.942 225.358 38.1963 222.478 36.3113 220.235C35.2692 218.995 34.4244 217.602 33.4183 216.332C32.3895 215.033 31.2863 213.727 30.6972 212.156C30.0708 210.485 30.2537 208.808 30.604 207.092C31.0375 204.969 31.4404 202.824 31.9645 200.721C32.9804 196.642 35.0245 192.919 36.0564 188.853C36.4468 187.315 36.4419 185.51 37.4269 184.191C38.4699 182.794 40.0926 182.704 41.702 182.793C43.6939 182.904 45.6843 183.124 47.666 183.35C48.917 183.492 51.6589 184.394 52.6772 183.625C53.0277 183.361 53.0284 182.667 53.4383 182.427C53.8335 182.196 54.4719 182.362 54.9038 182.394C57.0432 182.553 59.2012 182.746 61.3449 182.808C69.3127 183.041 77.7204 181.8 84.8342 178.098C88.1355 176.38 90.6502 173.676 93.3035 171.122C95.9125 168.611 98.1865 165.908 98.8884 162.262C99.5294 158.933 99.2868 154.953 98.2223 151.731C97.1855 148.592 93.5051 146.691 90.8267 145.144C87.1121 142.998 83.169 141.219 79.1671 139.679C78.5319 139.434 77.7598 139.123 77.0611 139.248C76.2046 139.401 75.629 140.144 74.8501 140.471C73.9236 140.861 72.7873 140.863 71.8099 141.09C70.8621 141.31 69.9385 141.614 68.973 141.759C65.933 142.218 61.6609 141.852 59.1486 139.91C55.0417 136.736 57.5232 132.244 58.8424 128.382C57.4476 128.334 56.286 128.661 54.9547 128.064C53.6282 127.469 52.5912 126.416 51.9864 125.097C50.8861 122.697 51.5218 119.939 51.8463 117.436C51.993 116.304 52.1606 115.182 52.5922 114.119C52.9266 113.296 53.4757 112.511 53.6785 111.641C53.9019 110.682 53.6122 110.626 52.8124 110.168C51.5795 109.461 50.6923 108.648 49.9377 107.407C48.4596 104.977 48.4228 102.325 49.634 99.7682C50.1244 98.7335 51.2939 97.3111 51.1608 96.1027C51.0465 95.0631 49.8697 94.2535 49.1768 93.5727C47.0374 91.4707 44.7623 89.53 42.3896 87.6962C41.2806 86.839 40.0592 86.0612 39.0515 85.0875C38.313 84.3743 37.5628 82.8227 36.553 82.4476C35.5422 82.0721 34.8691 83.2012 34.1648 83.8061C33.0671 84.7492 32.0154 85.8345 30.8193 86.6521C28.6738 88.1185 26.0137 87.8442 23.5911 87.3757C21.0602 86.8862 18.7129 86.0244 16.5551 84.6025C15.6978 84.0375 14.6966 82.8901 13.641 82.7982C12.5135 82.7002 11.2886 83.821 10.4828 84.4938C8.37913 86.2506 7.74754 88.9792 6.52225 91.3393C5.15408 93.975 4.57295 96.7106 4.94518 99.6735C5.28014 102.339 6.30675 104.353 7.8342 106.506C8.14979 106.952 8.88935 107.793 8.34889 108.285C7.6877 108.888 6.33273 107.68 5.88874 107.289C1.47844 103.41 -1.02814 97.5658 0.403491 91.7149C1.17201 88.5733 2.6754 85.6667 4.42112 82.9637C5.16345 81.8139 5.88767 80.6642 7.17876 80.0779C8.64829 79.4105 10.3135 79.49 11.8834 79.3299C10.7975 74.0149 10.4577 68.2316 13.7941 63.5994C16.3543 60.0447 21.5975 56.9345 25.7529 59.817C25.5825 55.8985 25.024 52.1775 26.0668 48.3196C26.5342 46.5906 27.1743 44.9082 27.9611 43.2991C28.732 41.7222 29.7965 40.3851 30.4194 38.7436C32.8763 32.2691 37.5905 26.4855 42.6258 21.8387C47.7158 17.1415 52.71 11.4111 59.1213 8.4724C65.8104 5.40613 72.6223 2.65075 79.8745 1.25754C87.4019 -0.188626 95.1391 -0.48547 102.722 0.883716C109.369 2.08407 115.521 6.11997 120.551 10.471C126.291 15.4359 129.996 21.4215 132.927 28.3548C133.571 29.8778 134.192 31.4139 134.982 32.8694C135.858 34.4844 136.984 35.9863 137.628 37.7193C138.202 39.2647 138.299 40.9412 137.276 42.3221C136.556 43.293 135.08 43.5122 134.451 44.4002C134.133 44.848 134.165 45.2739 134.863 45.4075C135.584 45.5451 135.928 44.7411 136.447 44.4185C137.737 43.6153 139.557 44.2996 140.862 44.7557C143.955 45.8372 146.376 47.7795 148.228 50.4719C149.999 53.0485 151.176 55.9757 152.345 58.8571C153.083 60.675 153.786 62.4809 154.192 64.4068C154.345 65.1315 154.558 67.0956 153.413 66.2349C152.949 65.8859 152.285 68.5339 152.41 68.9556C152.846 70.4222 154.398 71.7971 155.312 72.9843C157.461 75.7756 158.9 78.9025 160.416 82.0591C163.699 88.8952 167.355 95.5317 170.867 102.25C178.02 115.93 185.838 129.085 194.037 142.161C198.1 148.64 202.288 155.007 206.631 161.302C208.547 164.079 210.469 166.859 212.344 169.664C213.937 172.049 215.509 174.704 215.099 177.68C214.724 180.404 213.105 182.593 210.487 183.484C209.084 183.962 207.419 184.512 205.917 184.366C204.276 184.205 202.827 183.107 201.459 182.283C195.171 178.493 188.881 174.707 182.589 170.924C175.552 166.693 169.116 161.67 162.402 156.966C158.985 154.573 155.463 152.416 151.903 150.25C151.102 149.762 147.465 146.267 146.694 146.744Z" fill="black"/>
<path fill-rule="evenodd" clip-rule="evenodd" d="M85.7607 158.788C84.0418 161.319 82.2344 163.697 79.8147 165.617C77.2659 167.64 74.6003 169.279 71.7545 170.849C66.7354 173.617 60.008 176.068 54.1784 174.813C52.5206 174.456 49.8684 173.006 51.3097 170.935C52.0339 169.894 53.588 170.166 54.688 170.223C56.4601 170.315 58.01 170.416 59.708 169.82C62.8279 168.724 65.9697 167.69 69.0163 166.4C71.9671 165.15 74.5553 163.436 77.2625 161.753C79.8015 160.173 81.7384 158.283 83.9688 156.374C84.5797 155.851 85.63 154.937 86.2078 155.953C86.6255 156.688 85.9896 158.069 85.7607 158.788Z" fill="black"/>
<path fill-rule="evenodd" clip-rule="evenodd" d="M155.218 37.2305C155.026 38.3268 154.506 40.5077 152.964 40.2099C150.996 39.8299 151.965 35.9783 151.935 34.6706C151.805 28.9732 149.947 23.4947 147.197 18.5549C145.829 16.0991 144.144 13.8281 142.901 11.302C142.66 10.8111 141.927 9.5938 142.459 9.06132C143.098 8.42185 144.324 9.38683 144.775 9.84319C146.516 11.6078 147.904 14.2534 149.248 16.3298C151.044 19.1021 152.629 22.03 153.768 25.1384C155.143 28.8933 155.915 33.248 155.218 37.2305Z" fill="black"/>
<path fill-rule="evenodd" clip-rule="evenodd" d="M158.899 19.0108C159.083 19.9988 159.982 22.6871 158.378 22.9255C156.56 23.1958 155.996 18.7165 155.491 17.5298C155.225 16.9042 153.807 14.1489 154.546 13.5492C156.085 12.3005 158.534 18.2157 158.899 19.0108Z" fill="black"/>
<path fill-rule="evenodd" clip-rule="evenodd" d="M73.3413 152.332C71.6159 153.904 69.6127 153.812 67.4346 153.662C66.3286 153.586 63.7674 152.931 65.5472 151.56C66.4771 150.843 73.7719 150.35 73.3413 152.332Z" fill="black"/>
<path fill-rule="evenodd" clip-rule="evenodd" d="M207.794 181.117C207.916 180.874 208.952 179.703 209.175 180.176C209.386 180.623 208.067 181.104 207.794 181.117Z" fill="black"/>
<path fill-rule="evenodd" clip-rule="evenodd" d="M70.5516 94.2063C70.3393 94.644 69.453 94.262 69.1476 94.3283C69.5624 93.4398 70.0556 93.6302 70.5516 94.2063Z" fill="black"/>
<path fill-rule="evenodd" clip-rule="evenodd" d="M137.242 47.7364C137.15 48.0872 137.058 48.4383 136.966 48.7894C136.824 48.5264 136.682 48.2635 136.54 48.0005C136.774 47.9127 137.008 47.8244 137.242 47.7364Z" fill="black"/>
<path fill-rule="evenodd" clip-rule="evenodd" d="M138.937 114.053C141.151 114.277 143.373 114.39 145.596 114.458C147.473 114.515 148.244 114.161 148.484 112.21C148.767 109.898 148.865 107.564 149.149 105.251C149.277 104.2 150.297 102.1 149.069 101.537C148.04 101.066 146.434 101.741 145.357 101.821C144.156 101.909 142.344 101.543 141.283 102.255C140.148 103.016 140.395 105.681 140.201 106.931C139.833 109.316 139.389 111.684 138.937 114.053ZM137.88 102.822C135.873 102.974 133.859 103.093 131.858 103.307C130.967 103.402 129.164 103.843 128.414 103.195C126.651 101.674 133.238 101.14 133.985 101.02C135.244 100.818 137.4 101.086 138.207 99.8974C139.006 98.7218 138.804 96.746 139.01 95.3809C139.321 93.3264 139.676 91.2749 139.883 89.207C139.953 88.512 139.854 86.2161 140.588 85.8751C142.274 85.091 141.744 93.1714 141.717 93.7779C141.669 94.8207 141.617 95.8684 141.472 96.9025C141.39 97.4853 141.102 98.2737 141.279 98.8593C141.788 100.538 144.678 99.5699 145.993 99.436C147.469 99.2856 149.746 99.8571 150.235 98.0372C150.848 95.7501 150.759 93.1526 150.986 90.7996C151.049 90.1487 151.214 85.2889 152.413 85.6655C153.752 86.0862 153.229 90.1474 153.217 91.193C153.203 92.3732 153.208 93.5538 153.128 94.7318C153.056 95.7899 152.758 97.0872 152.979 98.1355C153.366 99.9738 155.545 98.9962 156.178 100.458C156.779 101.848 153.502 100.759 152.89 101.236C151.977 101.949 152.197 104.927 152.066 105.97C151.78 108.261 151.229 110.64 151.051 112.924C150.91 114.727 152.359 114.488 153.834 114.357C155.099 114.245 156.489 113.945 157.756 114.113C158.775 114.249 160.198 115.187 158.715 115.812C156.397 116.788 151.675 114.793 150.51 117.759C150.291 118.319 149.268 124.808 147.983 121.605C147.446 120.266 148.761 118.165 147.359 117.139C146.873 116.783 146.149 116.846 145.585 116.807C144.196 116.71 142.798 116.677 141.407 116.648C140.019 116.619 138.772 116.34 138.236 117.86C137.819 119.044 137.865 120.369 137.532 121.581C137.282 122.489 136.46 124.08 135.608 122.593C135.049 121.617 135.477 119.912 135.587 118.85C135.643 118.319 135.959 117.219 135.556 116.773C135.123 116.293 133.965 116.553 133.418 116.596C131.837 116.721 128.893 117.482 127.684 116.049C126.672 114.849 128.776 114.826 129.603 114.745C130.455 114.662 131.308 114.584 132.159 114.495C133.097 114.396 134.338 114.528 135.22 114.234C136.702 113.741 136.597 111.726 136.694 110.419C136.884 107.866 137.459 105.345 137.88 102.822Z" fill="black"/>
<path fill-rule="evenodd" clip-rule="evenodd" d="M163.918 108.274C163.799 109.748 163.639 111.401 163.163 112.801C162.803 113.86 162.076 114.182 161.828 112.834C161.671 111.979 162.715 107.164 163.918 108.274Z" fill="black"/>
<path fill-rule="evenodd" clip-rule="evenodd" d="M70.3507 98.5692C69.7597 98.145 66.9605 95.9129 68.9837 95.8247C70.0168 95.7795 72.2425 97.4788 72.3063 98.4214C72.3225 98.6595 71.8135 98.7827 71.8412 99.0129C71.8939 99.4513 72.5429 99.659 72.7519 100.007C73.213 100.776 73.0217 102.295 72.4263 103.026C71.0685 104.692 69.5609 101.871 70.612 101.317C70.3778 101.441 67.2349 99.843 67.1169 99.4822C66.4705 97.5052 70.192 99.3678 70.3507 98.5692Z" fill="black"/>
<path fill-rule="evenodd" clip-rule="evenodd" d="M75.2846 106.35C74.5667 106.372 73.1248 106.322 72.5872 105.81C71.5873 104.857 73.5372 104.73 74.1077 104.287C74.9073 103.665 75.0642 101.642 76.3193 102.894C77.5642 104.135 76.4694 105.579 75.2846 106.35Z" fill="black"/>
<path fill-rule="evenodd" clip-rule="evenodd" d="M64.9355 101.098C66.2335 100.908 69.1213 103.706 67.7199 103.892C66.7925 104.015 65.1379 101.846 64.9355 101.098Z" fill="black"/>
</svg>
